<?xml version="1.0" encoding="UTF-8" standalone="no"?>
<!-- Created with Inkscape (http://www.inkscape.org/) -->

<svg
   width="50.799999mm"
   height="128.5mm"
   viewBox="0 0 50.799997 128.5"
   version="1.1"
   id="svg1"
   inkscape:version="1.4 (86a8ad7, 2024-10-11)"
   sodipodi:docname="nonlinear_melody_transformer.svg"
   xmlns:inkscape="http://www.inkscape.org/namespaces/inkscape"
   xmlns:sodipodi="http://sodipodi.sourceforge.net/DTD/sodipodi-0.dtd"
   xmlns="http://www.w3.org/2000/svg"
   xmlns:svg="http://www.w3.org/2000/svg">
  <sodipodi:namedview
     id="namedview1"
     pagecolor="#ffffff"
     bordercolor="#000000"
     borderopacity="0.25"
     inkscape:showpageshadow="2"
     inkscape:pageopacity="0.0"
     inkscape:pagecheckerboard="0"
     inkscape:deskcolor="#d1d1d1"
     inkscape:document-units="mm"
     inkscape:zoom="1.4142136"
     inkscape:cx="61.164737"
     inkscape:cy="284.61048"
     inkscape:window-width="1920"
     inkscape:window-height="1009"
     inkscape:window-x="-8"
     inkscape:window-y="-8"
     inkscape:window-maximized="1"
     inkscape:current-layer="layer1"
     showgrid="true">
    <inkscape:grid
       id="grid2"
       units="mm"
       originx="4.3000008"
       originy="-0.19999997"
       spacingx="10.583251"
       spacingy="2.0078117"
       empcolor="#0099e5"
       empopacity="0.30196078"
       color="#0099e5"
       opacity="0.14901961"
       empspacing="1"
       enabled="true"
       visible="true" />
  </sodipodi:namedview>
  <defs
     id="defs1">
    <rect
       x="242.53763"
       y="110.66221"
       width="25.102291"
       height="21.92031"
       id="rect36" />
    <rect
       x="289.56023"
       y="120.20815"
       width="50.204582"
       height="14.495689"
       id="rect28" />
    <rect
       x="230.51681"
       y="133.64318"
       width="38.183766"
       height="13.435029"
       id="rect27" />
    <rect
       x="236.52722"
       y="118.79394"
       width="37.476659"
       height="12.020815"
       id="rect26" />
    <rect
       x="230.87036"
       y="103.23759"
       width="43.84062"
       height="11.667262"
       id="rect25" />
    <rect
       x="217.78889"
       y="85.206367"
       width="40.305087"
       height="12.374369"
       id="rect24" />
    <rect
       x="231.22392"
       y="82.718473"
       width="54.447222"
       height="15.17716"
       id="rect23" />
    <rect
       x="216.25043"
       y="63.63961"
       width="53.510809"
       height="11.490282"
       id="rect22" />
    <rect
       x="243.24473"
       y="75.129893"
       width="48.436815"
       height="15.17716"
       id="rect21" />
    <rect
       x="289.73961"
       y="380.84644"
       width="69.100399"
       height="23.653562"
       id="rect14" />
    <rect
       x="288.6"
       y="310"
       width="70.240008"
       height="32"
       id="rect13" />
    <rect
       x="400"
       y="258.01181"
       width="64.000009"
       height="35.35433"
       id="rect12" />
    <rect
       x="288"
       y="258.01181"
       width="64"
       height="30.35433"
       id="rect11" />
    <rect
       x="338.5"
       y="216"
       width="61.500002"
       height="21"
       id="rect10" />
    <rect
       x="246"
       y="216"
       width="58.000002"
       height="26.83464"
       id="rect9" />
    <rect
       x="377.5"
       y="106.24016"
       width="70.500003"
       height="30.35433"
       id="rect8" />
    <rect
       x="257.52"
       y="142.5"
       width="94.480006"
       height="33.5"
       id="rect7" />
    <rect
       x="256"
       y="87.885827"
       width="122.5"
       height="33.531494"
       id="rect6" />
    <rect
       x="297.5"
       y="106.24016"
       width="70.500002"
       height="45.531495"
       id="rect5" />
    <rect
       x="338.5"
       y="216"
       width="61.500002"
       height="21"
       id="rect17" />
    <rect
       x="288"
       y="258.01181"
       width="64"
       height="30.35433"
       id="rect18" />
    <rect
       x="400"
       y="258.01181"
       width="64.000009"
       height="35.35433"
       id="rect19" />
    <rect
       x="246"
       y="216"
       width="58.000002"
       height="26.83464"
       id="rect20" />
    <rect
       x="216.25043"
       y="63.63961"
       width="53.510809"
       height="11.490282"
       id="rect32" />
    <rect
       x="230.87036"
       y="103.23759"
       width="43.84062"
       height="11.667262"
       id="rect33" />
    <rect
       x="236.52722"
       y="118.79394"
       width="37.476659"
       height="12.020815"
       id="rect34" />
    <rect
       x="230.51681"
       y="133.64318"
       width="38.183766"
       height="13.435029"
       id="rect35" />
    <rect
       x="242.53763"
       y="110.66221"
       width="25.102291"
       height="21.92031"
       id="rect37" />
  </defs>
  <g
     inkscape:label="Layer 1"
     inkscape:groupmode="layer"
     id="layer1">
    <rect
       style="fill:#b3b3b3;stroke-width:0.465"
       id="rect1"
       width="50.799999"
       height="128.5"
       x="0"
       y="0"
       ry="0" />
    <rect
       style="fill:#666666;stroke-width:0.528273"
       id="rect2"
       width="42.333332"
       height="98.689583"
       x="4.233335"
       y="5.7166648"
       ry="4.2750072" />
    <path
       style="fill:#000000;stroke-width:0.75;fill-opacity:1;stroke-dasharray:none;stroke:#000000;stroke-opacity:1;stroke-linecap:round"
       d="M 25.4,8.0312497 V 100.39062"
       id="path4" />
    <rect
       style="fill:#333333;fill-opacity:1;stroke:none;stroke-width:0.789721;stroke-linecap:round;stroke-dasharray:none;stroke-opacity:1"
       id="rect4"
       width="16.893612"
       height="15.647784"
       x="27.602949"
       y="108.22183"
       ry="3.6810312" />
    <path
       d="M 7.2976798,9.3270353 H 9.2450131 V 9.919702 H 7.9115132 v 0.706967 h 1.1556999 v 0.592666 H 7.9115132 v 1.223433 H 7.2976798 Z m 2.5400026,0 h 0.6138336 v 2.5230667 h 1.464733 v 0.592666 H 9.8376824 Z m 2.4383996,1.5620997 q 0,-0.321733 0.122767,-0.6096 0.122767,-0.287866 0.338667,-0.508 0.220133,-0.2243657 0.508,-0.3513657 0.287866,-0.127 0.618066,-0.127 0.325967,0 0.613834,0.127 0.287866,0.127 0.508,0.3513657 0.224366,0.220134 0.347133,0.508 0.127,0.287867 0.127,0.6096 0,0.3302 -0.127,0.618067 -0.122767,0.287867 -0.347133,0.508 -0.220134,0.2159 -0.508,0.338666 -0.287867,0.122767 -0.613834,0.122767 -0.3302,0 -0.618066,-0.122767 -0.287867,-0.122766 -0.508,-0.338666 -0.2159,-0.220133 -0.338667,-0.508 -0.122767,-0.287867 -0.122767,-0.618067 z m 0.635,0 q 0,0.275167 0.127,0.503767 0.131234,0.224367 0.351367,0.359833 0.220133,0.131234 0.4953,0.131234 0.2667,0 0.478367,-0.131234 0.2159,-0.135466 0.338666,-0.359833 0.122767,-0.2286 0.122767,-0.503767 0,-0.283633 -0.127,-0.508 -0.127,-0.2286 -0.3429,-0.359833 -0.2159,-0.135467 -0.486833,-0.135467 -0.270934,0 -0.486834,0.135467 -0.2159,0.131233 -0.3429,0.359833 -0.127,0.224367 -0.127,0.508 z m 2.971798,0 q 0,-0.321733 0.122766,-0.6096 0.122767,-0.287866 0.338667,-0.508 0.220133,-0.2243657 0.508,-0.3513657 0.287867,-0.127 0.618067,-0.127 0.325966,0 0.613833,0.127 0.287867,0.127 0.508,0.3513657 0.224367,0.220134 0.347133,0.508 0.127,0.287867 0.127,0.6096 0,0.3302 -0.127,0.618067 -0.122766,0.287867 -0.347133,0.508 -0.220133,0.2159 -0.508,0.338666 -0.287867,0.122767 -0.613833,0.122767 -0.3302,0 -0.618067,-0.122767 -0.287867,-0.122766 -0.508,-0.338666 -0.2159,-0.220133 -0.338667,-0.508 -0.122766,-0.287867 -0.122766,-0.618067 z m 0.635,0 q 0,0.275167 0.127,0.503767 0.131233,0.224367 0.351366,0.359833 0.220134,0.131234 0.4953,0.131234 0.2667,0 0.478367,-0.131234 0.2159,-0.135466 0.338667,-0.359833 0.122766,-0.2286 0.122766,-0.503767 0,-0.283633 -0.127,-0.508 -0.127,-0.2286 -0.3429,-0.359833 -0.2159,-0.135467 -0.486833,-0.135467 -0.270933,0 -0.486833,0.135467 -0.2159,0.131233 -0.3429,0.359833 -0.127,0.224367 -0.127,0.508 z m 4.10633,-1.5620997 q 0.588434,0 0.9017,0.287867 0.3175,0.2836327 0.3175,0.7619997 0,0.2667 -0.1143,0.524933 -0.110066,0.258234 -0.376766,0.410634 l 0.7239,1.130299 H 21.36081 L 20.704644,11.452169 H 20.29401 v 0.990599 H 19.680177 V 9.3270353 Z m 0.105834,1.5324667 q 0.186266,0 0.287866,-0.0762 0.105834,-0.08043 0.148167,-0.186267 0.04233,-0.110066 0.04233,-0.198966 0,-0.0508 -0.01693,-0.127 -0.0127,-0.08043 -0.05927,-0.160867 -0.04657,-0.08043 -0.143933,-0.135467 -0.09313,-0.05503 -0.254,-0.05503 H 20.29401 v 0.9398 z"
       id="text6"
       style="font-weight:bold;font-size:16px;font-family:'Reem Kufi';-inkscape-font-specification:'Reem Kufi Bold';white-space:pre;fill:#1a1a1a;stroke-width:0.750001;stroke-linecap:round"
       aria-label="FLOOR" />
    <path
       d="m 29.81153,12.091402 q -0.0508,0.04233 -0.1905,0.1143 -0.135466,0.07197 -0.334433,0.127 -0.198967,0.05503 -0.440267,0.0508 -0.3683,-0.0085 -0.6604,-0.131234 -0.287866,-0.127 -0.491066,-0.3429 -0.198967,-0.2159 -0.3048,-0.4953 -0.105834,-0.2794 -0.105834,-0.5969 0,-0.474133 0.1905,-0.8381995 0.1905,-0.3640667 0.529167,-0.5715 0.3429,-0.2074334 0.795867,-0.2074334 0.313266,0 0.554566,0.084667 0.2413,0.084667 0.3937,0.1820333 l -0.2413,0.5799666 q -0.105833,-0.080433 -0.283633,-0.1650999 -0.173567,-0.0889 -0.402167,-0.0889 -0.237066,0 -0.4445,0.1312333 -0.2032,0.1312326 -0.3302,0.3555996 -0.122766,0.220133 -0.122766,0.503767 0,0.300566 0.1143,0.529166 0.1143,0.224367 0.325966,0.351367 0.211667,0.127 0.4953,0.127 0.249767,0 0.427567,-0.08043 0.1778,-0.08043 0.270933,-0.169334 z m 0.613836,-2.8575002 h 2.125133 v 0.5926667 h -1.5113 v 0.6646335 h 1.337734 v 0.592666 h -1.337734 v 0.6731 h 1.570567 v 0.592667 h -2.1844 z m 2.819403,0 h 0.613833 v 3.1157332 h -0.613833 z m 1.418161,0 h 0.613833 v 2.5230662 h 1.464734 v 0.592667 H 34.66293 Z m 2.713569,0 h 0.613834 v 3.1157332 h -0.613834 z m 4.207931,3.2427332 -2.180167,-1.9685 0.0127,1.8415 h -0.6223 V 9.1111351 h 0.0254 l 2.175934,1.9981329 -0.0127,-1.8753662 h 0.618066 v 3.2427332 z m 3.348569,-0.440267 q -0.05503,0.05927 -0.173566,0.122767 -0.118534,0.05927 -0.275167,0.110067 -0.1524,0.0508 -0.313267,0.08043 -0.160866,0.03387 -0.3048,0.03387 -0.503766,0 -0.8763,-0.194734 -0.372533,-0.194733 -0.575733,-0.5334 -0.198967,-0.338666 -0.198967,-0.7747 0,-0.427566 0.127,-0.740833 0.131234,-0.3174999 0.351367,-0.5249332 0.224367,-0.2116667 0.512233,-0.3132667 0.2921,-0.1016 0.6096,-0.1016 0.300567,0 0.550334,0.067733 0.249766,0.0635 0.423333,0.1608666 l -0.198967,0.5715003 q -0.0762,-0.042333 -0.2032,-0.084667 -0.127,-0.042333 -0.258233,-0.067733 -0.131233,-0.029633 -0.232833,-0.029633 -0.503767,0 -0.7747,0.2540004 -0.270934,0.249766 -0.270934,0.753533 0,0.2921 0.131234,0.503767 0.131233,0.211666 0.364066,0.325966 0.237067,0.1143 0.537634,0.1143 0.131233,0 0.2413,-0.01693 0.110066,-0.02117 0.186266,-0.0635 v -0.376767 h -0.537633 v -0.592666 h 1.159933 z"
       id="text7"
       style="font-weight:bold;font-size:16px;font-family:'Reem Kufi';-inkscape-font-specification:'Reem Kufi Bold';white-space:pre;fill:#1a1a1a;stroke-width:0.750001;stroke-linecap:round"
       aria-label="CEILING" />
    <path
       d="m 247.14,226.3 v -9.192 h 0.012 l 4.476,6.348 4.584,-6.348 h 0.024 v 9.192 h -1.74 v -4.212 l -2.88,4.092 h -0.024 l -2.772,-3.828 v 3.948 z m 10.836,-4.404 q 0,-0.912 0.348,-1.728 0.348,-0.816 0.96,-1.44 0.624,-0.636 1.44,-0.996 0.816,-0.36 1.752,-0.36 0.924,0 1.74,0.36 0.816,0.36 1.44,0.996 0.636,0.624 0.984,1.44 0.36,0.816 0.36,1.728 0,0.936 -0.36,1.752 -0.348,0.816 -0.984,1.44 -0.624,0.612 -1.44,0.96 -0.816,0.348 -1.74,0.348 -0.936,0 -1.752,-0.348 -0.816,-0.348 -1.44,-0.96 -0.612,-0.624 -0.96,-1.44 -0.348,-0.816 -0.348,-1.752 z m 1.8,0 q 0,0.78 0.36,1.428 0.372,0.636 0.996,1.02 0.624,0.372 1.404,0.372 0.756,0 1.356,-0.372 0.612,-0.384 0.96,-1.02 0.348,-0.648 0.348,-1.428 0,-0.804 -0.36,-1.44 -0.36,-0.648 -0.972,-1.02 -0.612,-0.384 -1.38,-0.384 -0.768,0 -1.38,0.384 -0.612,0.372 -0.972,1.02 -0.36,0.636 -0.36,1.44 z m 8.96399,4.404 v -8.832 h 2.64 q 1.332,0 2.268,0.396 0.936,0.396 1.5,1.056 0.576,0.66 0.84,1.476 0.264,0.816 0.264,1.644 0,0.984 -0.36,1.776 -0.348,0.78 -0.96,1.344 -0.612,0.552 -1.416,0.852 -0.804,0.288 -1.704,0.288 z m 1.74,-1.68 h 1.032 q 1.32,0 2.124,-0.684 0.816,-0.684 0.816,-2.016 0,-0.864 -0.288,-1.404 -0.276,-0.552 -0.696,-0.852 -0.408,-0.3 -0.84,-0.408 -0.432,-0.12 -0.732,-0.12 h -1.416 z m 7.512,-7.152 h 6.024 v 1.68 h -4.284 v 1.884 h 3.792 v 1.68 h -3.792 v 1.908 h 4.452 v 1.68 h -6.192 z"
       id="text8"
       style="font-weight:bold;font-size:12px;font-family:'Reem Kufi';-inkscape-font-specification:'Reem Kufi Bold';white-space:pre;fill:#1a1a1a;stroke-width:2.83465;stroke-linecap:round"
       transform="matrix(0.26458333,0,0,0.26458333,-55.004069,-21.502546)"
       aria-label="MODE" />
    <path
       d="m 9.6162986,61.862038 h 0.4603754 v 1.8923 h 1.09855 v 0.4445 H 9.6162986 Z m 2.0351774,0 h 1.59385 v 0.4445 h -1.133475 v 0.498475 h 1.0033 v 0.4445 h -1.0033 v 0.504825 h 1.177925 v 0.4445 h -1.6383 z m 2.466975,0 0.5334,1.317625 0.50165,-1.317625 h 0.5461 l -1.0668,2.44475 -1.0668,-2.44475 z m 1.984375,0 h 1.59385 v 0.4445 h -1.133475 v 0.498475 h 1.0033 v 0.4445 h -1.0033 v 0.504825 h 1.177925 v 0.4445 h -1.6383 z m 2.114553,0 h 0.460375 v 1.8923 h 1.09855 v 0.4445 h -1.558925 z"
       id="text9"
       style="font-weight:bold;font-size:12px;font-family:'Reem Kufi';-inkscape-font-specification:'Reem Kufi Bold';white-space:pre;fill:#1a1a1a;stroke-width:0.750001;stroke-linecap:round"
       aria-label="LEVEL" />
    <path
       d="m 295.764,267.57972 q -0.144,0.12 -0.54,0.324 -0.384,0.204 -0.948,0.36 -0.564,0.156 -1.248,0.144 -1.044,-0.024 -1.872,-0.372 -0.816,-0.36 -1.392,-0.972 -0.564,-0.612 -0.864,-1.404 -0.3,-0.792 -0.3,-1.692 0,-1.344 0.54,-2.376 0.54,-1.032 1.5,-1.62 0.972,-0.588 2.256,-0.588 0.888,0 1.572,0.24 0.684,0.24 1.116,0.516 l -0.684,1.644 q -0.3,-0.228 -0.804,-0.468 -0.492,-0.252 -1.14,-0.252 -0.672,0 -1.26,0.372 -0.576,0.372 -0.936,1.008 -0.348,0.624 -0.348,1.428 0,0.852 0.324,1.5 0.324,0.636 0.924,0.996 0.6,0.36 1.404,0.36 0.708,0 1.212,-0.228 0.504,-0.228 0.768,-0.48 z m 3.07201,-8.1 2.016,4.98 1.896,-4.98 h 2.064 l -4.032,9.24 -4.032,-9.24 z m 9.05999,0 h 1.74 v 8.832 h -1.74 z m 11.92799,9.192 -6.18,-5.58 0.036,5.22 h -1.764 v -9.18 h 0.072 l 6.168,5.664 -0.036,-5.316 h 1.752 v 9.192 z"
       id="text10"
       style="font-weight:bold;font-size:12px;font-family:'Reem Kufi';-inkscape-font-specification:'Reem Kufi Bold';white-space:pre;fill:#1a1a1a;stroke-width:2.83465;stroke-linecap:round"
       transform="matrix(0.26458333,0,0,0.26458333,-65.640737,9.5427249)"
       aria-label="CV IN" />
    <path
       d="m 408.304,267.42372 q -0.156,0.168 -0.492,0.348 -0.336,0.168 -0.78,0.312 -0.432,0.144 -0.888,0.228 -0.456,0.096 -0.864,0.096 -1.428,0 -2.484,-0.552 -1.056,-0.552 -1.632,-1.512 -0.564,-0.96 -0.564,-2.196 0,-1.212 0.36,-2.1 0.372,-0.9 0.996,-1.488 0.636,-0.6 1.452,-0.888 0.828,-0.288 1.728,-0.288 0.852,0 1.56,0.192 0.708,0.18 1.2,0.456 l -0.564,1.62 q -0.216,-0.12 -0.576,-0.24 -0.36,-0.12 -0.732,-0.192 -0.372,-0.084 -0.66,-0.084 -1.428,0 -2.196,0.72 -0.768,0.708 -0.768,2.136 0,0.828 0.372,1.428 0.372,0.6 1.032,0.924 0.672,0.324 1.524,0.324 0.372,0 0.684,-0.048 0.312,-0.06 0.528,-0.18 v -1.068 h -1.524 v -1.68 h 3.288 z m 0.98399,0.888 3.984,-9.18 h 0.096 l 3.984,9.18 h -2.016 l -0.684,-1.728 h -2.928 l -0.72,1.728 z m 3.048,-3.192 h 1.74 l -0.852,-2.148 z m 4.98,-5.64 h 5.952 v 1.68 h -2.148 v 7.152 h -1.74 v -7.152 h -2.064 z m 7.632,0 h 6.024 v 1.68 h -4.284 v 1.884 h 3.792 v 1.68 h -3.792 v 1.908 h 4.452 v 1.68 h -6.192 z m 9.012,4.428 q 0,-0.912 0.348,-1.728 0.348,-0.816 0.96,-1.44 0.624,-0.636 1.44,-0.996 0.816,-0.36 1.752,-0.36 0.924,0 1.74,0.36 0.816,0.36 1.44,0.996 0.636,0.624 0.984,1.44 0.36,0.816 0.36,1.728 0,0.936 -0.36,1.752 -0.348,0.816 -0.984,1.44 -0.624,0.612 -1.44,0.96 -0.816,0.348 -1.74,0.348 -0.936,0 -1.752,-0.348 -0.816,-0.348 -1.44,-0.96 -0.612,-0.624 -0.96,-1.44 -0.348,-0.816 -0.348,-1.752 z m 1.8,0 q 0,0.78 0.36,1.428 0.372,0.636 0.996,1.02 0.624,0.372 1.404,0.372 0.756,0 1.356,-0.372 0.612,-0.384 0.96,-1.02 0.348,-0.648 0.348,-1.428 0,-0.804 -0.36,-1.44 -0.36,-0.648 -0.972,-1.02 -0.612,-0.384 -1.38,-0.384 -0.768,0 -1.38,0.384 -0.612,0.372 -0.972,1.02 -0.36,0.636 -0.36,1.44 z m 10.52399,1.14 q 0,0.42 0.252,0.804 0.252,0.384 0.66,0.624 0.42,0.24 0.912,0.24 0.54,0 0.96,-0.24 0.42,-0.24 0.66,-0.624 0.252,-0.384 0.252,-0.804 v -5.568 h 1.716 v 5.604 q 0,0.972 -0.48,1.728 -0.48,0.744 -1.296,1.176 -0.816,0.42 -1.812,0.42 -0.984,0 -1.8,-0.42 -0.804,-0.432 -1.284,-1.176 -0.48,-0.756 -0.48,-1.728 v -5.604 h 1.74 z m 6.912,-5.568 h 5.952 v 1.68 h -2.148 v 7.152 h -1.74 v -7.152 h -2.064 z"
       id="text11"
       style="font-weight:bold;font-size:12px;font-family:'Reem Kufi';-inkscape-font-specification:'Reem Kufi Bold';white-space:pre;fill:#1a1a1a;stroke-width:2.83465;stroke-linecap:round"
       transform="matrix(0.26458333,0,0,0.26458333,-98.40864,27.613031)"
       aria-label="GATE OUT" />
    <path
       d="m 289.73961,311.468 h 1.74 v 8.832 h -1.74 z m 11.92799,9.192 -6.18,-5.58 0.036,5.22 h -1.764 v -9.18 h 0.072 l 6.168,5.664 -0.036,-5.316 h 1.752 v 9.192 z m 5.00401,-9.192 q 1.644,0 2.52,0.816 0.876,0.804 0.876,2.16 0,0.54 -0.168,1.092 -0.156,0.54 -0.516,0.984 -0.348,0.444 -0.948,0.72 -0.588,0.264 -1.452,0.264 h -1.248 v 2.796 h -1.74 v -8.832 z m 0.3,4.344 q 0.528,0 0.816,-0.228 0.3,-0.24 0.42,-0.552 0.12,-0.312 0.12,-0.54 0,-0.132 -0.048,-0.348 -0.036,-0.228 -0.168,-0.456 -0.132,-0.228 -0.408,-0.384 -0.264,-0.156 -0.72,-0.156 h -1.248 v 2.664 z m 6.21599,1.224 q 0,0.42 0.252,0.804 0.252,0.384 0.66,0.624 0.42,0.24 0.912,0.24 0.54,0 0.96,-0.24 0.42,-0.24 0.66,-0.624 0.252,-0.384 0.252,-0.804 v -5.568 h 1.716 v 5.604 q 0,0.972 -0.48,1.728 -0.48,0.744 -1.296,1.176 -0.816,0.42 -1.812,0.42 -0.984,0 -1.8,-0.42 -0.804,-0.432 -1.284,-1.176 -0.48,-0.756 -0.48,-1.728 v -5.604 h 1.74 z m 6.91201,-5.568 h 5.952 v 1.68 h -2.148 v 7.152 h -1.74 v -7.152 h -2.064 z"
       id="text12"
       style="font-weight:bold;font-size:12px;font-family:'Reem Kufi';-inkscape-font-specification:'Reem Kufi Bold';white-space:pre;fill:#1a1a1a;stroke-width:2.83465;stroke-linecap:round"
       transform="matrix(0.26458333,0,0,0.26458333,-66.135844,35.943727)"
       aria-label="INPUT" />
    <path
       d="m 290.34023,386.7417 q 0,-0.912 0.348,-1.728 0.348,-0.816 0.96,-1.44 0.624,-0.636 1.44,-0.996 0.816,-0.36 1.752,-0.36 0.924,0 1.74,0.36 0.816,0.36 1.44,0.996 0.636,0.624 0.984,1.44 0.36,0.816 0.36,1.728 0,0.936 -0.36,1.752 -0.348,0.816 -0.984,1.44 -0.624,0.612 -1.44,0.96 -0.816,0.348 -1.74,0.348 -0.936,0 -1.752,-0.348 -0.816,-0.348 -1.44,-0.96 -0.612,-0.624 -0.96,-1.44 -0.348,-0.816 -0.348,-1.752 z m 1.8,0 q 0,0.78 0.36,1.428 0.372,0.636 0.996,1.02 0.624,0.372 1.404,0.372 0.756,0 1.356,-0.372 0.612,-0.384 0.96,-1.02 0.348,-0.648 0.348,-1.428 0,-0.804 -0.36,-1.44 -0.36,-0.648 -0.972,-1.02 -0.612,-0.384 -1.38,-0.384 -0.768,0 -1.38,0.384 -0.612,0.372 -0.972,1.02 -0.36,0.636 -0.36,1.44 z m 10.524,1.14 q 0,0.42 0.252,0.804 0.252,0.384 0.66,0.624 0.42,0.24 0.912,0.24 0.54,0 0.96,-0.24 0.42,-0.24 0.66,-0.624 0.252,-0.384 0.252,-0.804 v -5.568 h 1.716 v 5.604 q 0,0.972 -0.48,1.728 -0.48,0.744 -1.296,1.176 -0.816,0.42 -1.812,0.42 -0.984,0 -1.8,-0.42 -0.804,-0.432 -1.284,-1.176 -0.48,-0.756 -0.48,-1.728 v -5.604 h 1.74 z m 6.912,-5.568 h 5.952 v 1.68 h -2.148 v 7.152 h -1.74 v -7.152 h -2.064 z m 10.30801,0 q 1.644,0 2.52,0.816 0.876,0.804 0.876,2.16 0,0.54 -0.168,1.092 -0.156,0.54 -0.516,0.984 -0.348,0.444 -0.948,0.72 -0.588,0.264 -1.452,0.264 h -1.248 v 2.796 h -1.74 v -8.832 z m 0.3,4.344 q 0.528,0 0.816,-0.228 0.3,-0.24 0.42,-0.552 0.12,-0.312 0.12,-0.54 0,-0.132 -0.048,-0.348 -0.036,-0.228 -0.168,-0.456 -0.132,-0.228 -0.408,-0.384 -0.264,-0.156 -0.72,-0.156 h -1.248 v 2.664 z m 6.21599,1.224 q 0,0.42 0.252,0.804 0.252,0.384 0.66,0.624 0.42,0.24 0.912,0.24 0.54,0 0.96,-0.24 0.42,-0.24 0.66,-0.624 0.252,-0.384 0.252,-0.804 v -5.568 h 1.716 v 5.604 q 0,0.972 -0.48,1.728 -0.48,0.744 -1.296,1.176 -0.816,0.42 -1.812,0.42 -0.984,0 -1.8,-0.42 -0.804,-0.432 -1.284,-1.176 -0.48,-0.756 -0.48,-1.728 v -5.604 h 1.74 z m 6.91201,-5.568 h 5.952 v 1.68 h -2.148 v 7.152 h -1.74 v -7.152 h -2.064 z"
       id="text13"
       style="font-weight:bold;font-size:12px;font-family:'Reem Kufi';-inkscape-font-specification:'Reem Kufi Bold';white-space:pre;fill:#e6e6e6;stroke-width:2.83465;stroke-linecap:round"
       transform="matrix(0.26458333,0,0,0.26458333,-46.758387,17.13246)"
       aria-label="OUTPUT" />
    <path
       d="m 31.023696,61.862038 h 0.460375 v 1.8923 h 1.09855 v 0.4445 h -1.558925 z m 2.035178,0 h 1.59385 v 0.4445 h -1.133475 v 0.498475 h 1.0033 v 0.4445 h -1.0033 v 0.504825 h 1.177925 v 0.4445 h -1.6383 z m 2.466975,0 0.5334,1.317625 0.50165,-1.317625 h 0.5461 l -1.0668,2.44475 -1.0668,-2.44475 z m 1.984375,0 h 1.59385 v 0.4445 h -1.133475 v 0.498475 h 1.0033 v 0.4445 h -1.0033 v 0.504825 h 1.177925 v 0.4445 h -1.6383 z m 2.114552,0 h 0.460375 v 1.8923 h 1.09855 v 0.4445 h -1.558925 z"
       id="text15"
       style="font-weight:bold;font-size:12px;font-family:'Reem Kufi';-inkscape-font-specification:'Reem Kufi Bold';white-space:pre;fill:#1a1a1a;stroke-width:0.750001;stroke-linecap:round"
       aria-label="LEVEL" />
    <path
       d="m 295.764,267.57972 q -0.144,0.12 -0.54,0.324 -0.384,0.204 -0.948,0.36 -0.564,0.156 -1.248,0.144 -1.044,-0.024 -1.872,-0.372 -0.816,-0.36 -1.392,-0.972 -0.564,-0.612 -0.864,-1.404 -0.3,-0.792 -0.3,-1.692 0,-1.344 0.54,-2.376 0.54,-1.032 1.5,-1.62 0.972,-0.588 2.256,-0.588 0.888,0 1.572,0.24 0.684,0.24 1.116,0.516 l -0.684,1.644 q -0.3,-0.228 -0.804,-0.468 -0.492,-0.252 -1.14,-0.252 -0.672,0 -1.26,0.372 -0.576,0.372 -0.936,1.008 -0.348,0.624 -0.348,1.428 0,0.852 0.324,1.5 0.324,0.636 0.924,0.996 0.6,0.36 1.404,0.36 0.708,0 1.212,-0.228 0.504,-0.228 0.768,-0.48 z m 3.07201,-8.1 2.016,4.98 1.896,-4.98 h 2.064 l -4.032,9.24 -4.032,-9.24 z m 9.05999,0 h 1.74 v 8.832 h -1.74 z m 11.92799,9.192 -6.18,-5.58 0.036,5.22 h -1.764 v -9.18 h 0.072 l 6.168,5.664 -0.036,-5.316 h 1.752 v 9.192 z"
       id="text16"
       style="font-weight:bold;font-size:12px;font-family:'Reem Kufi';-inkscape-font-specification:'Reem Kufi Bold';white-space:pre;fill:#1a1a1a;stroke-width:2.83465;stroke-linecap:round"
       transform="matrix(0.26458333,0,0,0.26458333,-44.78035,9.5427249)"
       aria-label="CV IN" />
    <path
       d="m 408.304,267.42372 q -0.156,0.168 -0.492,0.348 -0.336,0.168 -0.78,0.312 -0.432,0.144 -0.888,0.228 -0.456,0.096 -0.864,0.096 -1.428,0 -2.484,-0.552 -1.056,-0.552 -1.632,-1.512 -0.564,-0.96 -0.564,-2.196 0,-1.212 0.36,-2.1 0.372,-0.9 0.996,-1.488 0.636,-0.6 1.452,-0.888 0.828,-0.288 1.728,-0.288 0.852,0 1.56,0.192 0.708,0.18 1.2,0.456 l -0.564,1.62 q -0.216,-0.12 -0.576,-0.24 -0.36,-0.12 -0.732,-0.192 -0.372,-0.084 -0.66,-0.084 -1.428,0 -2.196,0.72 -0.768,0.708 -0.768,2.136 0,0.828 0.372,1.428 0.372,0.6 1.032,0.924 0.672,0.324 1.524,0.324 0.372,0 0.684,-0.048 0.312,-0.06 0.528,-0.18 v -1.068 h -1.524 v -1.68 h 3.288 z m 0.98399,0.888 3.984,-9.18 h 0.096 l 3.984,9.18 h -2.016 l -0.684,-1.728 h -2.928 l -0.72,1.728 z m 3.048,-3.192 h 1.74 l -0.852,-2.148 z m 4.98,-5.64 h 5.952 v 1.68 h -2.148 v 7.152 h -1.74 v -7.152 h -2.064 z m 7.632,0 h 6.024 v 1.68 h -4.284 v 1.884 h 3.792 v 1.68 h -3.792 v 1.908 h 4.452 v 1.68 h -6.192 z m 9.012,4.428 q 0,-0.912 0.348,-1.728 0.348,-0.816 0.96,-1.44 0.624,-0.636 1.44,-0.996 0.816,-0.36 1.752,-0.36 0.924,0 1.74,0.36 0.816,0.36 1.44,0.996 0.636,0.624 0.984,1.44 0.36,0.816 0.36,1.728 0,0.936 -0.36,1.752 -0.348,0.816 -0.984,1.44 -0.624,0.612 -1.44,0.96 -0.816,0.348 -1.74,0.348 -0.936,0 -1.752,-0.348 -0.816,-0.348 -1.44,-0.96 -0.612,-0.624 -0.96,-1.44 -0.348,-0.816 -0.348,-1.752 z m 1.8,0 q 0,0.78 0.36,1.428 0.372,0.636 0.996,1.02 0.624,0.372 1.404,0.372 0.756,0 1.356,-0.372 0.612,-0.384 0.96,-1.02 0.348,-0.648 0.348,-1.428 0,-0.804 -0.36,-1.44 -0.36,-0.648 -0.972,-1.02 -0.612,-0.384 -1.38,-0.384 -0.768,0 -1.38,0.384 -0.612,0.372 -0.972,1.02 -0.36,0.636 -0.36,1.44 z m 10.52399,1.14 q 0,0.42 0.252,0.804 0.252,0.384 0.66,0.624 0.42,0.24 0.912,0.24 0.54,0 0.96,-0.24 0.42,-0.24 0.66,-0.624 0.252,-0.384 0.252,-0.804 v -5.568 h 1.716 v 5.604 q 0,0.972 -0.48,1.728 -0.48,0.744 -1.296,1.176 -0.816,0.42 -1.812,0.42 -0.984,0 -1.8,-0.42 -0.804,-0.432 -1.284,-1.176 -0.48,-0.756 -0.48,-1.728 v -5.604 h 1.74 z m 6.912,-5.568 h 5.952 v 1.68 h -2.148 v 7.152 h -1.74 v -7.152 h -2.064 z"
       id="text17"
       style="font-weight:bold;font-size:12px;font-family:'Reem Kufi';-inkscape-font-specification:'Reem Kufi Bold';white-space:pre;fill:#1a1a1a;stroke-width:2.83465;stroke-linecap:round"
       transform="matrix(0.26458333,0,0,0.26458333,-77.548253,27.613031)"
       aria-label="GATE OUT" />
    <path
       d="m 247.14,226.3 v -9.192 h 0.012 l 4.476,6.348 4.584,-6.348 h 0.024 v 9.192 h -1.74 v -4.212 l -2.88,4.092 h -0.024 l -2.772,-3.828 v 3.948 z m 10.836,-4.404 q 0,-0.912 0.348,-1.728 0.348,-0.816 0.96,-1.44 0.624,-0.636 1.44,-0.996 0.816,-0.36 1.752,-0.36 0.924,0 1.74,0.36 0.816,0.36 1.44,0.996 0.636,0.624 0.984,1.44 0.36,0.816 0.36,1.728 0,0.936 -0.36,1.752 -0.348,0.816 -0.984,1.44 -0.624,0.612 -1.44,0.96 -0.816,0.348 -1.74,0.348 -0.936,0 -1.752,-0.348 -0.816,-0.348 -1.44,-0.96 -0.612,-0.624 -0.96,-1.44 -0.348,-0.816 -0.348,-1.752 z m 1.8,0 q 0,0.78 0.36,1.428 0.372,0.636 0.996,1.02 0.624,0.372 1.404,0.372 0.756,0 1.356,-0.372 0.612,-0.384 0.96,-1.02 0.348,-0.648 0.348,-1.428 0,-0.804 -0.36,-1.44 -0.36,-0.648 -0.972,-1.02 -0.612,-0.384 -1.38,-0.384 -0.768,0 -1.38,0.384 -0.612,0.372 -0.972,1.02 -0.36,0.636 -0.36,1.44 z m 8.96399,4.404 v -8.832 h 2.64 q 1.332,0 2.268,0.396 0.936,0.396 1.5,1.056 0.576,0.66 0.84,1.476 0.264,0.816 0.264,1.644 0,0.984 -0.36,1.776 -0.348,0.78 -0.96,1.344 -0.612,0.552 -1.416,0.852 -0.804,0.288 -1.704,0.288 z m 1.74,-1.68 h 1.032 q 1.32,0 2.124,-0.684 0.816,-0.684 0.816,-2.016 0,-0.864 -0.288,-1.404 -0.276,-0.552 -0.696,-0.852 -0.408,-0.3 -0.84,-0.408 -0.432,-0.12 -0.732,-0.12 h -1.416 z m 7.512,-7.152 h 6.024 v 1.68 h -4.284 v 1.884 h 3.792 v 1.68 h -3.792 v 1.908 h 4.452 v 1.68 h -6.192 z"
       id="text19"
       style="font-weight:bold;font-size:12px;font-family:'Reem Kufi';-inkscape-font-specification:'Reem Kufi Bold';white-space:pre;fill:#1a1a1a;stroke-width:2.83465;stroke-linecap:round"
       transform="matrix(0.26458333,0,0,0.26458333,-33.675961,-21.502546)"
       aria-label="MODE" />
    <path
       style="font-size:8px;font-family:'Reem Kufi';-inkscape-font-specification:'Reem Kufi';white-space:pre;fill:#1a1a1a;stroke-width:2.83465;stroke-linecap:round"
       d="m 217.602,67.161339 0.064,0.792 q 0.144,-0.288 0.384,-0.496 0.24,-0.208 0.496,-0.32 0.264,-0.112 0.448,-0.112 l -0.04,0.8 q -0.376,-0.024 -0.664,0.144 -0.28,0.168 -0.44,0.448 -0.16,0.28 -0.16,0.6 v 1.488 h -0.808 v -3.344 z m 3.75201,3.424 q -0.576,0 -0.992,-0.224 -0.416,-0.232 -0.64,-0.632 -0.224,-0.408 -0.224,-0.92 0,-0.496 0.248,-0.896 0.256,-0.408 0.68,-0.648 0.424,-0.24 0.944,-0.24 0.672,0 1.112,0.392 0.448,0.384 0.6,1.088 l -2.616,0.904 q 0.144,0.232 0.376,0.36 0.24,0.128 0.528,0.128 0.216,0 0.416,-0.072 0.2,-0.08 0.376,-0.208 l 0.368,0.6 q -0.256,0.168 -0.568,0.272 -0.304,0.096 -0.608,0.096 z m -1.048,-1.656 1.864,-0.68 q -0.104,-0.232 -0.312,-0.408 -0.2,-0.176 -0.544,-0.176 -0.448,0 -0.736,0.312 -0.28,0.304 -0.28,0.784 0,0.088 0.008,0.168 z m 6.41599,1.264 q -0.224,0.184 -0.544,0.288 -0.312,0.104 -0.632,0.104 -0.544,0 -0.968,-0.216 -0.416,-0.216 -0.648,-0.608 -0.232,-0.392 -0.232,-0.928 0,-0.544 0.248,-0.936 0.248,-0.392 0.648,-0.6 0.408,-0.216 0.872,-0.216 0.416,0 0.728,0.112 0.32,0.112 0.552,0.312 l -0.4,0.52 q -0.136,-0.112 -0.344,-0.2 -0.208,-0.088 -0.464,-0.088 -0.288,0 -0.528,0.144 -0.232,0.144 -0.368,0.392 -0.136,0.248 -0.136,0.56 0,0.304 0.136,0.552 0.144,0.248 0.392,0.392 0.256,0.144 0.576,0.144 0.208,0 0.384,-0.064 0.184,-0.064 0.32,-0.168 z m 1.264,-4.496 h 0.816 v 1.472 h 0.896 v 0.632 h -0.896 v 2.704 h -0.816 v -2.704 h -0.592 v -0.632 h 0.592 z m 2.59999,1.464 h 0.808 v 3.344 h -0.808 z m -0.04,-1.2 q 0,-0.184 0.144,-0.312 0.152,-0.128 0.328,-0.128 0.176,0 0.32,0.128 0.144,0.128 0.144,0.312 0,0.2 -0.144,0.32 -0.144,0.12 -0.32,0.12 -0.176,0 -0.328,-0.12 -0.144,-0.12 -0.144,-0.32 z m 2.39201,4.544 v -2.624 h -0.568 v -0.72 h 0.568 v -1.368 q 0,-0.712 0.336,-1.104 0.344,-0.4 1,-0.4 0.176,0 0.384,0.056 0.216,0.048 0.384,0.16 l -0.344,0.584 q -0.072,-0.08 -0.168,-0.104 -0.088,-0.032 -0.176,-0.032 -0.28,0 -0.448,0.2 -0.16,0.192 -0.16,0.656 v 1.352 h 1.056 v 0.72 h -1.056 v 2.624 z m 3.112,1.608 0.768,-1.72 -1.544,-3.232 h 0.904 l 1.048,2.312 1.024,-2.312 h 0.744 l -2.16,4.952 z"
       id="text21"
       transform="matrix(0.26458333,0,0,0.26458333,-51.917106,13.751017)"
       aria-label="rectify" />
    <path
       style="font-size:8px;font-family:'Reem Kufi';-inkscape-font-specification:'Reem Kufi';white-space:pre;fill:#1a1a1a;stroke-width:2.83465;stroke-linecap:round"
       d="m 218.70106,92.073698 v -2.624 h -0.568 v -0.72 h 0.568 v -1.368 q 0,-0.712 0.336,-1.104 0.344,-0.4 1,-0.4 0.176,0 0.384,0.056 0.216,0.048 0.384,0.16 l -0.344,0.584 q -0.072,-0.08 -0.168,-0.104 -0.088,-0.032 -0.176,-0.032 -0.28,0 -0.448,0.2 -0.16,0.192 -0.16,0.656 v 1.352 h 1.056 v 0.72 h -1.056 v 2.624 z m 2.82401,-6.216 h 0.808 v 6.216 h -0.808 z m 1.784,4.512 q 0,-0.504 0.24,-0.904 0.24,-0.408 0.664,-0.64 0.424,-0.232 0.968,-0.232 0.552,0 0.96,0.232 0.416,0.232 0.64,0.64 0.232,0.4 0.232,0.904 0,0.504 -0.232,0.912 -0.232,0.4 -0.648,0.64 -0.408,0.232 -0.968,0.232 -0.528,0 -0.952,-0.216 -0.416,-0.216 -0.664,-0.616 -0.24,-0.408 -0.24,-0.952 z m 0.816,0.008 q 0,0.312 0.136,0.568 0.136,0.248 0.368,0.4 0.24,0.144 0.528,0.144 0.456,0 0.744,-0.32 0.296,-0.32 0.296,-0.792 0,-0.472 -0.296,-0.792 -0.288,-0.328 -0.744,-0.328 -0.296,0 -0.528,0.152 -0.232,0.152 -0.368,0.408 -0.136,0.256 -0.136,0.56 z m 3.576,-0.008 q 0,-0.504 0.24,-0.904 0.24,-0.408 0.664,-0.64 0.424,-0.232 0.968,-0.232 0.552,0 0.96,0.232 0.416,0.232 0.64,0.64 0.232,0.4 0.232,0.904 0,0.504 -0.232,0.912 -0.232,0.4 -0.648,0.64 -0.408,0.232 -0.968,0.232 -0.528,0 -0.952,-0.216 -0.416,-0.216 -0.664,-0.616 -0.24,-0.408 -0.24,-0.952 z m 0.816,0.008 q 0,0.312 0.136,0.568 0.136,0.248 0.368,0.4 0.24,0.144 0.528,0.144 0.456,0 0.744,-0.32 0.296,-0.32 0.296,-0.792 0,-0.472 -0.296,-0.792 -0.288,-0.328 -0.744,-0.328 -0.296,0 -0.528,0.152 -0.232,0.152 -0.368,0.408 -0.136,0.256 -0.136,0.56 z m 4.584,-1.648 0.064,0.792 q 0.144,-0.288 0.384,-0.496 0.24,-0.208 0.496,-0.32 0.264,-0.112 0.448,-0.112 l -0.04,0.8 q -0.376,-0.024 -0.664,0.144 -0.28,0.168 -0.44,0.448 -0.16,0.28 -0.16,0.6 v 1.488 h -0.808 v -3.344 z"
       id="text23"
       transform="matrix(0.26458333,0,0,0.26458333,-30.027731,3.7417734)"
       aria-label="floor" />
    <path
       style="font-size:8px;font-family:'Reem Kufi';-inkscape-font-specification:'Reem Kufi';white-space:pre;fill:#1a1a1a;stroke-width:2.83465;stroke-linecap:round"
       d="m 233.69509,106.76095 0.856,1.992 0.792,-1.992 h 0.792 l -1.528,3.544 -1.072,-2.28 -0.984,2.28 -1.536,-3.544 h 0.784 l 0.848,1.928 0.6,-1.384 -0.256,-0.544 z m 3.93601,0 0.064,0.792 q 0.144,-0.288 0.384,-0.496 0.24,-0.208 0.496,-0.32 0.264,-0.112 0.448,-0.112 l -0.04,0.8 q -0.376,-0.024 -0.664,0.144 -0.28,0.168 -0.44,0.448 -0.16,0.28 -0.16,0.6 v 1.488 h -0.808 v -3.344 z m 3.64001,3.424 q -0.472,0 -0.856,-0.2 -0.384,-0.2 -0.608,-0.584 -0.224,-0.392 -0.224,-0.968 0,-0.56 0.232,-0.96 0.24,-0.408 0.624,-0.624 0.392,-0.224 0.848,-0.224 0.464,0 0.768,0.192 0.304,0.184 0.48,0.448 l 0.056,-0.504 h 0.744 v 3.344 h -0.808 v -0.528 q -0.088,0.112 -0.264,0.256 -0.176,0.144 -0.424,0.248 -0.248,0.104 -0.568,0.104 z m 0.216,-0.664 q 0.4,0 0.672,-0.208 0.28,-0.216 0.368,-0.584 v -0.688 q -0.096,-0.328 -0.392,-0.544 -0.288,-0.216 -0.672,-0.216 -0.288,0 -0.528,0.144 -0.24,0.136 -0.384,0.392 -0.144,0.248 -0.144,0.576 0,0.32 0.144,0.576 0.152,0.256 0.4,0.408 0.248,0.144 0.536,0.144 z m 5.11199,0.664 q -0.352,0 -0.672,-0.144 -0.32,-0.144 -0.52,-0.408 v 2.08 h -0.808 v -5.008 h 0.696 l 0.072,0.544 q 0.24,-0.272 0.592,-0.448 0.352,-0.176 0.792,-0.176 0.472,0 0.848,0.224 0.376,0.224 0.592,0.632 0.216,0.4 0.216,0.944 0,0.544 -0.24,0.944 -0.232,0.392 -0.64,0.608 -0.408,0.208 -0.928,0.208 z m -0.16,-0.64 q 0.312,0 0.568,-0.144 0.264,-0.144 0.416,-0.392 0.16,-0.256 0.16,-0.576 0,-0.328 -0.144,-0.584 -0.144,-0.256 -0.392,-0.4 -0.248,-0.144 -0.552,-0.144 -0.416,0 -0.704,0.224 -0.28,0.224 -0.384,0.592 v 0.6 q 0.064,0.36 0.352,0.592 0.288,0.232 0.68,0.232 z"
       id="text24"
       transform="matrix(0.26458333,0,0,0.26458333,-48.736598,-5.051394)"
       aria-label="wrap" />
    <path
       style="font-size:8px;font-family:'Reem Kufi';-inkscape-font-specification:'Reem Kufi';white-space:pre;fill:#1a1a1a;stroke-width:2.83465;stroke-linecap:round"
       d="m 239.89534,125.34764 q -0.224,0.184 -0.544,0.288 -0.312,0.104 -0.632,0.104 -0.544,0 -0.968,-0.216 -0.416,-0.216 -0.648,-0.608 -0.232,-0.392 -0.232,-0.928 0,-0.544 0.248,-0.936 0.248,-0.392 0.648,-0.6 0.408,-0.216 0.872,-0.216 0.416,0 0.728,0.112 0.32,0.112 0.552,0.312 l -0.4,0.52 q -0.136,-0.112 -0.344,-0.2 -0.208,-0.088 -0.464,-0.088 -0.288,0 -0.528,0.144 -0.232,0.144 -0.368,0.392 -0.136,0.248 -0.136,0.56 0,0.304 0.136,0.552 0.144,0.248 0.392,0.392 0.256,0.144 0.576,0.144 0.208,0 0.384,-0.064 0.184,-0.064 0.32,-0.168 z m 0.944,-5.904 h 0.808 v 6.216 h -0.808 z m 2.072,2.872 h 0.808 v 3.344 h -0.808 z m -0.04,-1.2 q 0,-0.184 0.144,-0.312 0.152,-0.128 0.328,-0.128 0.176,0 0.32,0.128 0.144,0.128 0.144,0.312 0,0.2 -0.144,0.32 -0.144,0.12 -0.32,0.12 -0.176,0 -0.328,-0.12 -0.144,-0.12 -0.144,-0.32 z m 4.11201,4.624 q -0.352,0 -0.672,-0.144 -0.32,-0.144 -0.52,-0.408 v 2.08 h -0.808 v -5.008 h 0.696 l 0.072,0.544 q 0.24,-0.272 0.592,-0.448 0.352,-0.176 0.792,-0.176 0.472,0 0.848,0.224 0.376,0.224 0.592,0.632 0.216,0.4 0.216,0.944 0,0.544 -0.24,0.944 -0.232,0.392 -0.64,0.608 -0.408,0.208 -0.928,0.208 z m -0.16,-0.64 q 0.312,0 0.568,-0.144 0.264,-0.144 0.416,-0.392 0.16,-0.256 0.16,-0.576 0,-0.328 -0.144,-0.584 -0.144,-0.256 -0.392,-0.4 -0.248,-0.144 -0.552,-0.144 -0.416,0 -0.704,0.224 -0.28,0.224 -0.384,0.592 v 0.6 q 0.064,0.36 0.352,0.592 0.288,0.232 0.68,0.232 z"
       id="text25"
       transform="matrix(0.26458333,0,0,0.26458333,-42.843305,-5.5191157)"
       aria-label="clip" />
    <path
       style="font-size:8px;font-family:'Reem Kufi';-inkscape-font-specification:'Reem Kufi';white-space:pre;fill:#1a1a1a;stroke-width:2.83465;stroke-linecap:round"
       d="m 232.11758,140.58124 q -0.368,0 -0.704,-0.128 -0.336,-0.136 -0.568,-0.384 l 0.344,-0.464 q 0.208,0.2 0.432,0.304 0.232,0.104 0.432,0.104 0.232,0 0.408,-0.088 0.176,-0.096 0.176,-0.312 0,-0.176 -0.12,-0.272 -0.112,-0.096 -0.288,-0.16 -0.176,-0.064 -0.376,-0.12 -0.856,-0.28 -0.856,-0.984 0,-0.264 0.128,-0.496 0.136,-0.24 0.408,-0.384 0.272,-0.152 0.672,-0.152 0.352,0 0.632,0.088 0.28,0.08 0.52,0.28 l -0.312,0.488 q -0.144,-0.144 -0.344,-0.216 -0.192,-0.08 -0.352,-0.088 -0.216,0 -0.376,0.104 -0.16,0.096 -0.16,0.264 -0.008,0.224 0.184,0.328 0.192,0.096 0.44,0.176 0.032,0.008 0.064,0.024 0.04,0.008 0.08,0.024 0.368,0.12 0.608,0.328 0.248,0.208 0.248,0.608 0,0.304 -0.144,0.56 -0.144,0.256 -0.44,0.416 -0.288,0.152 -0.736,0.152 z m 2.05599,-1.776 q 0,-0.504 0.24,-0.904 0.24,-0.408 0.664,-0.64 0.424,-0.232 0.968,-0.232 0.552,0 0.96,0.232 0.416,0.232 0.64,0.64 0.232,0.4 0.232,0.904 0,0.504 -0.232,0.912 -0.232,0.4 -0.648,0.64 -0.408,0.232 -0.968,0.232 -0.528,0 -0.952,-0.216 -0.416,-0.216 -0.664,-0.616 -0.24,-0.408 -0.24,-0.952 z m 0.816,0.008 q 0,0.312 0.136,0.568 0.136,0.248 0.368,0.4 0.24,0.144 0.528,0.144 0.456,0 0.744,-0.32 0.296,-0.32 0.296,-0.792 0,-0.472 -0.296,-0.792 -0.288,-0.328 -0.744,-0.328 -0.296,0 -0.528,0.152 -0.232,0.152 -0.368,0.408 -0.136,0.256 -0.136,0.56 z m 4.144,1.696 v -2.624 h -0.568 v -0.72 h 0.568 v -1.368 q 0,-0.712 0.336,-1.104 0.344,-0.4 1,-0.4 0.176,0 0.384,0.056 0.216,0.048 0.384,0.16 l -0.344,0.584 q -0.072,-0.08 -0.168,-0.104 -0.088,-0.032 -0.176,-0.032 -0.28,0 -0.448,0.2 -0.16,0.192 -0.16,0.656 v 1.352 h 1.056 v 0.72 h -1.056 v 2.624 z m 3.14401,-4.808 h 0.816 v 1.472 h 0.896 v 0.632 h -0.896 v 2.704 h -0.816 v -2.704 h -0.592 v -0.632 h 0.592 z m 6.37599,4.496 q -0.224,0.184 -0.544,0.288 -0.312,0.104 -0.632,0.104 -0.544,0 -0.968,-0.216 -0.416,-0.216 -0.648,-0.608 -0.232,-0.392 -0.232,-0.928 0,-0.544 0.248,-0.936 0.248,-0.392 0.648,-0.6 0.408,-0.216 0.872,-0.216 0.416,0 0.728,0.112 0.32,0.112 0.552,0.312 l -0.4,0.52 q -0.136,-0.112 -0.344,-0.2 -0.208,-0.088 -0.464,-0.088 -0.288,0 -0.528,0.144 -0.232,0.144 -0.368,0.392 -0.136,0.248 -0.136,0.56 0,0.304 0.136,0.552 0.144,0.248 0.392,0.392 0.256,0.144 0.576,0.144 0.208,0 0.384,-0.064 0.184,-0.064 0.32,-0.168 z m 0.94399,-5.904 h 0.808 v 6.216 h -0.808 z m 2.07201,2.872 h 0.808 v 3.344 h -0.808 z m -0.04,-1.2 q 0,-0.184 0.144,-0.312 0.152,-0.128 0.328,-0.128 0.176,0 0.32,0.128 0.144,0.128 0.144,0.312 0,0.2 -0.144,0.32 -0.144,0.12 -0.32,0.12 -0.176,0 -0.328,-0.12 -0.144,-0.12 -0.144,-0.32 z m 4.112,4.624 q -0.352,0 -0.672,-0.144 -0.32,-0.144 -0.52,-0.408 v 2.08 h -0.808 v -5.008 h 0.696 l 0.072,0.544 q 0.24,-0.272 0.592,-0.448 0.352,-0.176 0.792,-0.176 0.472,0 0.848,0.224 0.376,0.224 0.592,0.632 0.216,0.4 0.216,0.944 0,0.544 -0.24,0.944 -0.232,0.392 -0.64,0.608 -0.408,0.208 -0.928,0.208 z m -0.16,-0.64 q 0.312,0 0.568,-0.144 0.264,-0.144 0.416,-0.392 0.16,-0.256 0.16,-0.576 0,-0.328 -0.144,-0.584 -0.144,-0.256 -0.392,-0.4 -0.248,-0.144 -0.552,-0.144 -0.416,0 -0.704,0.224 -0.28,0.224 -0.384,0.592 v 0.6 q 0.064,0.36 0.352,0.592 0.288,0.232 0.68,0.232 z"
       id="text26"
       transform="matrix(0.26458333,0,0,0.26458333,-43.311027,-4.7707611)"
       aria-label="soft clip" />
    <path
       style="font-size:8px;font-family:'Reem Kufi';-inkscape-font-specification:'Reem Kufi';white-space:pre;fill:#1a1a1a;stroke-width:2.83465;stroke-linecap:round"
       d="m 292.92855,126.76365 q -0.224,0.184 -0.544,0.288 -0.312,0.104 -0.632,0.104 -0.544,0 -0.968,-0.216 -0.416,-0.216 -0.648,-0.608 -0.232,-0.392 -0.232,-0.928 0,-0.544 0.248,-0.936 0.248,-0.392 0.648,-0.6 0.408,-0.216 0.872,-0.216 0.416,0 0.728,0.112 0.32,0.112 0.552,0.312 l -0.4,0.52 q -0.136,-0.112 -0.344,-0.2 -0.208,-0.088 -0.464,-0.088 -0.288,0 -0.528,0.144 -0.232,0.144 -0.368,0.392 -0.136,0.248 -0.136,0.56 0,0.304 0.136,0.552 0.144,0.248 0.392,0.392 0.256,0.144 0.576,0.144 0.208,0 0.384,-0.064 0.184,-0.064 0.32,-0.168 z m 2.51199,0.392 q -0.576,0 -0.992,-0.224 -0.416,-0.232 -0.64,-0.632 -0.224,-0.408 -0.224,-0.92 0,-0.496 0.248,-0.896 0.256,-0.408 0.68,-0.648 0.424,-0.24 0.944,-0.24 0.672,0 1.112,0.392 0.448,0.384 0.6,1.088 l -2.616,0.904 q 0.144,0.232 0.376,0.36 0.24,0.128 0.528,0.128 0.216,0 0.416,-0.072 0.2,-0.08 0.376,-0.208 l 0.368,0.6 q -0.256,0.168 -0.568,0.272 -0.304,0.096 -0.608,0.096 z m -1.048,-1.656 1.864,-0.68 q -0.104,-0.232 -0.312,-0.408 -0.2,-0.176 -0.544,-0.176 -0.448,0 -0.736,0.312 -0.28,0.304 -0.28,0.784 0,0.088 0.008,0.168 z m 3.68,-1.768 h 0.808 v 3.344 h -0.808 z m -0.04,-1.2 q 0,-0.184 0.144,-0.312 0.152,-0.128 0.328,-0.128 0.176,0 0.32,0.128 0.144,0.128 0.144,0.312 0,0.2 -0.144,0.32 -0.144,0.12 -0.32,0.12 -0.176,0 -0.328,-0.12 -0.144,-0.12 -0.144,-0.32 z m 2.112,-1.672 h 0.808 v 6.216 h -0.808 z m 2.07201,2.872 h 0.808 v 3.344 h -0.808 z m -0.04,-1.2 q 0,-0.184 0.144,-0.312 0.152,-0.128 0.328,-0.128 0.176,0 0.32,0.128 0.144,0.128 0.144,0.312 0,0.2 -0.144,0.32 -0.144,0.12 -0.32,0.12 -0.176,0 -0.328,-0.12 -0.144,-0.12 -0.144,-0.32 z m 2.84001,1.2 0.056,0.624 q 0.168,-0.344 0.52,-0.544 0.352,-0.208 0.816,-0.208 0.472,0 0.776,0.28 0.304,0.272 0.312,0.72 v 2.472 h -0.808 v -2.192 q -0.008,-0.256 -0.152,-0.416 -0.144,-0.168 -0.448,-0.176 -0.424,0 -0.712,0.352 -0.28,0.352 -0.28,0.904 v 1.528 h -0.808 v -3.344 z m 5.38399,5.008 q -0.576,0 -0.944,-0.2 -0.368,-0.2 -0.68,-0.472 l 0.48,-0.552 q 0.248,0.24 0.512,0.376 0.272,0.136 0.616,0.136 0.544,0 0.84,-0.256 0.296,-0.256 0.304,-0.688 v -0.608 q -0.168,0.296 -0.52,0.488 -0.344,0.192 -0.832,0.192 -0.464,0 -0.848,-0.232 -0.384,-0.232 -0.616,-0.632 -0.232,-0.4 -0.232,-0.904 0,-0.52 0.24,-0.92 0.248,-0.408 0.648,-0.64 0.4,-0.232 0.856,-0.232 0.432,0 0.784,0.16 0.352,0.16 0.528,0.416 l 0.056,-0.44 h 0.744 v 3.368 q 0,0.456 -0.24,0.824 -0.24,0.376 -0.672,0.592 -0.432,0.224 -1.024,0.224 z m -1.104,-3.376 q 0,0.32 0.144,0.576 0.152,0.256 0.4,0.408 0.256,0.144 0.568,0.144 0.424,0 0.72,-0.216 0.296,-0.224 0.4,-0.568 v -0.688 q -0.104,-0.344 -0.408,-0.552 -0.304,-0.216 -0.712,-0.216 -0.312,0 -0.568,0.144 -0.248,0.144 -0.4,0.392 -0.144,0.248 -0.144,0.576 z"
       id="text27"
       transform="matrix(0.26458333,0,0,0.26458333,-71.280783,-5.1449384)"
       aria-label="ceiling" />
    <path
       style="font-size:8px;font-family:'Reem Kufi';-inkscape-font-specification:'Reem Kufi';white-space:pre;fill:#1a1a1a;stroke-width:2.83465;stroke-linecap:round"
       d="m 217.602,67.161339 0.064,0.792 q 0.144,-0.288 0.384,-0.496 0.24,-0.208 0.496,-0.32 0.264,-0.112 0.448,-0.112 l -0.04,0.8 q -0.376,-0.024 -0.664,0.144 -0.28,0.168 -0.44,0.448 -0.16,0.28 -0.16,0.6 v 1.488 h -0.808 v -3.344 z m 3.75201,3.424 q -0.576,0 -0.992,-0.224 -0.416,-0.232 -0.64,-0.632 -0.224,-0.408 -0.224,-0.92 0,-0.496 0.248,-0.896 0.256,-0.408 0.68,-0.648 0.424,-0.24 0.944,-0.24 0.672,0 1.112,0.392 0.448,0.384 0.6,1.088 l -2.616,0.904 q 0.144,0.232 0.376,0.36 0.24,0.128 0.528,0.128 0.216,0 0.416,-0.072 0.2,-0.08 0.376,-0.208 l 0.368,0.6 q -0.256,0.168 -0.568,0.272 -0.304,0.096 -0.608,0.096 z m -1.048,-1.656 1.864,-0.68 q -0.104,-0.232 -0.312,-0.408 -0.2,-0.176 -0.544,-0.176 -0.448,0 -0.736,0.312 -0.28,0.304 -0.28,0.784 0,0.088 0.008,0.168 z m 6.41599,1.264 q -0.224,0.184 -0.544,0.288 -0.312,0.104 -0.632,0.104 -0.544,0 -0.968,-0.216 -0.416,-0.216 -0.648,-0.608 -0.232,-0.392 -0.232,-0.928 0,-0.544 0.248,-0.936 0.248,-0.392 0.648,-0.6 0.408,-0.216 0.872,-0.216 0.416,0 0.728,0.112 0.32,0.112 0.552,0.312 l -0.4,0.52 q -0.136,-0.112 -0.344,-0.2 -0.208,-0.088 -0.464,-0.088 -0.288,0 -0.528,0.144 -0.232,0.144 -0.368,0.392 -0.136,0.248 -0.136,0.56 0,0.304 0.136,0.552 0.144,0.248 0.392,0.392 0.256,0.144 0.576,0.144 0.208,0 0.384,-0.064 0.184,-0.064 0.32,-0.168 z m 1.264,-4.496 h 0.816 v 1.472 h 0.896 v 0.632 h -0.896 v 2.704 h -0.816 v -2.704 h -0.592 v -0.632 h 0.592 z m 2.59999,1.464 h 0.808 v 3.344 h -0.808 z m -0.04,-1.2 q 0,-0.184 0.144,-0.312 0.152,-0.128 0.328,-0.128 0.176,0 0.32,0.128 0.144,0.128 0.144,0.312 0,0.2 -0.144,0.32 -0.144,0.12 -0.32,0.12 -0.176,0 -0.328,-0.12 -0.144,-0.12 -0.144,-0.32 z m 2.39201,4.544 v -2.624 h -0.568 v -0.72 h 0.568 v -1.368 q 0,-0.712 0.336,-1.104 0.344,-0.4 1,-0.4 0.176,0 0.384,0.056 0.216,0.048 0.384,0.16 l -0.344,0.584 q -0.072,-0.08 -0.168,-0.104 -0.088,-0.032 -0.176,-0.032 -0.28,0 -0.448,0.2 -0.16,0.192 -0.16,0.656 v 1.352 h 1.056 v 0.72 h -1.056 v 2.624 z m 3.112,1.608 0.768,-1.72 -1.544,-3.232 h 0.904 l 1.048,2.312 1.024,-2.312 h 0.744 l -2.16,4.952 z"
       id="text29"
       transform="matrix(0.26458333,0,0,0.26458333,-30.027731,14.03165)"
       aria-label="rectify" />
    <path
       style="font-size:8px;font-family:'Reem Kufi';-inkscape-font-specification:'Reem Kufi';white-space:pre;fill:#1a1a1a;stroke-width:2.83465;stroke-linecap:round"
       d="m 233.69509,106.76095 0.856,1.992 0.792,-1.992 h 0.792 l -1.528,3.544 -1.072,-2.28 -0.984,2.28 -1.536,-3.544 h 0.784 l 0.848,1.928 0.6,-1.384 -0.256,-0.544 z m 3.93601,0 0.064,0.792 q 0.144,-0.288 0.384,-0.496 0.24,-0.208 0.496,-0.32 0.264,-0.112 0.448,-0.112 l -0.04,0.8 q -0.376,-0.024 -0.664,0.144 -0.28,0.168 -0.44,0.448 -0.16,0.28 -0.16,0.6 v 1.488 h -0.808 v -3.344 z m 3.64001,3.424 q -0.472,0 -0.856,-0.2 -0.384,-0.2 -0.608,-0.584 -0.224,-0.392 -0.224,-0.968 0,-0.56 0.232,-0.96 0.24,-0.408 0.624,-0.624 0.392,-0.224 0.848,-0.224 0.464,0 0.768,0.192 0.304,0.184 0.48,0.448 l 0.056,-0.504 h 0.744 v 3.344 h -0.808 v -0.528 q -0.088,0.112 -0.264,0.256 -0.176,0.144 -0.424,0.248 -0.248,0.104 -0.568,0.104 z m 0.216,-0.664 q 0.4,0 0.672,-0.208 0.28,-0.216 0.368,-0.584 v -0.688 q -0.096,-0.328 -0.392,-0.544 -0.288,-0.216 -0.672,-0.216 -0.288,0 -0.528,0.144 -0.24,0.136 -0.384,0.392 -0.144,0.248 -0.144,0.576 0,0.32 0.144,0.576 0.152,0.256 0.4,0.408 0.248,0.144 0.536,0.144 z m 5.11199,0.664 q -0.352,0 -0.672,-0.144 -0.32,-0.144 -0.52,-0.408 v 2.08 h -0.808 v -5.008 h 0.696 l 0.072,0.544 q 0.24,-0.272 0.592,-0.448 0.352,-0.176 0.792,-0.176 0.472,0 0.848,0.224 0.376,0.224 0.592,0.632 0.216,0.4 0.216,0.944 0,0.544 -0.24,0.944 -0.232,0.392 -0.64,0.608 -0.408,0.208 -0.928,0.208 z m -0.16,-0.64 q 0.312,0 0.568,-0.144 0.264,-0.144 0.416,-0.392 0.16,-0.256 0.16,-0.576 0,-0.328 -0.144,-0.584 -0.144,-0.256 -0.392,-0.4 -0.248,-0.144 -0.552,-0.144 -0.416,0 -0.704,0.224 -0.28,0.224 -0.384,0.592 v 0.6 q 0.064,0.36 0.352,0.592 0.288,0.232 0.68,0.232 z"
       id="text30"
       transform="matrix(0.26458333,0,0,0.26458333,-27.314945,-5.051394)"
       aria-label="wrap" />
    <path
       style="font-size:8px;font-family:'Reem Kufi';-inkscape-font-specification:'Reem Kufi';white-space:pre;fill:#1a1a1a;stroke-width:2.83465;stroke-linecap:round"
       d="m 239.89534,125.34764 q -0.224,0.184 -0.544,0.288 -0.312,0.104 -0.632,0.104 -0.544,0 -0.968,-0.216 -0.416,-0.216 -0.648,-0.608 -0.232,-0.392 -0.232,-0.928 0,-0.544 0.248,-0.936 0.248,-0.392 0.648,-0.6 0.408,-0.216 0.872,-0.216 0.416,0 0.728,0.112 0.32,0.112 0.552,0.312 l -0.4,0.52 q -0.136,-0.112 -0.344,-0.2 -0.208,-0.088 -0.464,-0.088 -0.288,0 -0.528,0.144 -0.232,0.144 -0.368,0.392 -0.136,0.248 -0.136,0.56 0,0.304 0.136,0.552 0.144,0.248 0.392,0.392 0.256,0.144 0.576,0.144 0.208,0 0.384,-0.064 0.184,-0.064 0.32,-0.168 z m 0.944,-5.904 h 0.808 v 6.216 h -0.808 z m 2.072,2.872 h 0.808 v 3.344 h -0.808 z m -0.04,-1.2 q 0,-0.184 0.144,-0.312 0.152,-0.128 0.328,-0.128 0.176,0 0.32,0.128 0.144,0.128 0.144,0.312 0,0.2 -0.144,0.32 -0.144,0.12 -0.32,0.12 -0.176,0 -0.328,-0.12 -0.144,-0.12 -0.144,-0.32 z m 4.11201,4.624 q -0.352,0 -0.672,-0.144 -0.32,-0.144 -0.52,-0.408 v 2.08 h -0.808 v -5.008 h 0.696 l 0.072,0.544 q 0.24,-0.272 0.592,-0.448 0.352,-0.176 0.792,-0.176 0.472,0 0.848,0.224 0.376,0.224 0.592,0.632 0.216,0.4 0.216,0.944 0,0.544 -0.24,0.944 -0.232,0.392 -0.64,0.608 -0.408,0.208 -0.928,0.208 z m -0.16,-0.64 q 0.312,0 0.568,-0.144 0.264,-0.144 0.416,-0.392 0.16,-0.256 0.16,-0.576 0,-0.328 -0.144,-0.584 -0.144,-0.256 -0.392,-0.4 -0.248,-0.144 -0.552,-0.144 -0.416,0 -0.704,0.224 -0.28,0.224 -0.384,0.592 v 0.6 q 0.064,0.36 0.352,0.592 0.288,0.232 0.68,0.232 z"
       id="text31"
       transform="matrix(0.26458333,0,0,0.26458333,-21.982918,-5.332027)"
       aria-label="clip" />
    <path
       style="font-size:8px;font-family:'Reem Kufi';-inkscape-font-specification:'Reem Kufi';white-space:pre;fill:#1a1a1a;stroke-width:2.83465;stroke-linecap:round"
       d="m 232.11758,140.58124 q -0.368,0 -0.704,-0.128 -0.336,-0.136 -0.568,-0.384 l 0.344,-0.464 q 0.208,0.2 0.432,0.304 0.232,0.104 0.432,0.104 0.232,0 0.408,-0.088 0.176,-0.096 0.176,-0.312 0,-0.176 -0.12,-0.272 -0.112,-0.096 -0.288,-0.16 -0.176,-0.064 -0.376,-0.12 -0.856,-0.28 -0.856,-0.984 0,-0.264 0.128,-0.496 0.136,-0.24 0.408,-0.384 0.272,-0.152 0.672,-0.152 0.352,0 0.632,0.088 0.28,0.08 0.52,0.28 l -0.312,0.488 q -0.144,-0.144 -0.344,-0.216 -0.192,-0.08 -0.352,-0.088 -0.216,0 -0.376,0.104 -0.16,0.096 -0.16,0.264 -0.008,0.224 0.184,0.328 0.192,0.096 0.44,0.176 0.032,0.008 0.064,0.024 0.04,0.008 0.08,0.024 0.368,0.12 0.608,0.328 0.248,0.208 0.248,0.608 0,0.304 -0.144,0.56 -0.144,0.256 -0.44,0.416 -0.288,0.152 -0.736,0.152 z m 2.05599,-1.776 q 0,-0.504 0.24,-0.904 0.24,-0.408 0.664,-0.64 0.424,-0.232 0.968,-0.232 0.552,0 0.96,0.232 0.416,0.232 0.64,0.64 0.232,0.4 0.232,0.904 0,0.504 -0.232,0.912 -0.232,0.4 -0.648,0.64 -0.408,0.232 -0.968,0.232 -0.528,0 -0.952,-0.216 -0.416,-0.216 -0.664,-0.616 -0.24,-0.408 -0.24,-0.952 z m 0.816,0.008 q 0,0.312 0.136,0.568 0.136,0.248 0.368,0.4 0.24,0.144 0.528,0.144 0.456,0 0.744,-0.32 0.296,-0.32 0.296,-0.792 0,-0.472 -0.296,-0.792 -0.288,-0.328 -0.744,-0.328 -0.296,0 -0.528,0.152 -0.232,0.152 -0.368,0.408 -0.136,0.256 -0.136,0.56 z m 4.144,1.696 v -2.624 h -0.568 v -0.72 h 0.568 v -1.368 q 0,-0.712 0.336,-1.104 0.344,-0.4 1,-0.4 0.176,0 0.384,0.056 0.216,0.048 0.384,0.16 l -0.344,0.584 q -0.072,-0.08 -0.168,-0.104 -0.088,-0.032 -0.176,-0.032 -0.28,0 -0.448,0.2 -0.16,0.192 -0.16,0.656 v 1.352 h 1.056 v 0.72 h -1.056 v 2.624 z m 3.14401,-4.808 h 0.816 v 1.472 h 0.896 v 0.632 h -0.896 v 2.704 h -0.816 v -2.704 h -0.592 v -0.632 h 0.592 z m 6.37599,4.496 q -0.224,0.184 -0.544,0.288 -0.312,0.104 -0.632,0.104 -0.544,0 -0.968,-0.216 -0.416,-0.216 -0.648,-0.608 -0.232,-0.392 -0.232,-0.928 0,-0.544 0.248,-0.936 0.248,-0.392 0.648,-0.6 0.408,-0.216 0.872,-0.216 0.416,0 0.728,0.112 0.32,0.112 0.552,0.312 l -0.4,0.52 q -0.136,-0.112 -0.344,-0.2 -0.208,-0.088 -0.464,-0.088 -0.288,0 -0.528,0.144 -0.232,0.144 -0.368,0.392 -0.136,0.248 -0.136,0.56 0,0.304 0.136,0.552 0.144,0.248 0.392,0.392 0.256,0.144 0.576,0.144 0.208,0 0.384,-0.064 0.184,-0.064 0.32,-0.168 z m 0.94399,-5.904 h 0.808 v 6.216 h -0.808 z m 2.07201,2.872 h 0.808 v 3.344 h -0.808 z m -0.04,-1.2 q 0,-0.184 0.144,-0.312 0.152,-0.128 0.328,-0.128 0.176,0 0.32,0.128 0.144,0.128 0.144,0.312 0,0.2 -0.144,0.32 -0.144,0.12 -0.32,0.12 -0.176,0 -0.328,-0.12 -0.144,-0.12 -0.144,-0.32 z m 4.112,4.624 q -0.352,0 -0.672,-0.144 -0.32,-0.144 -0.52,-0.408 v 2.08 h -0.808 v -5.008 h 0.696 l 0.072,0.544 q 0.24,-0.272 0.592,-0.448 0.352,-0.176 0.792,-0.176 0.472,0 0.848,0.224 0.376,0.224 0.592,0.632 0.216,0.4 0.216,0.944 0,0.544 -0.24,0.944 -0.232,0.392 -0.64,0.608 -0.408,0.208 -0.928,0.208 z m -0.16,-0.64 q 0.312,0 0.568,-0.144 0.264,-0.144 0.416,-0.392 0.16,-0.256 0.16,-0.576 0,-0.328 -0.144,-0.584 -0.144,-0.256 -0.392,-0.4 -0.248,-0.144 -0.552,-0.144 -0.416,0 -0.704,0.224 -0.28,0.224 -0.384,0.592 v 0.6 q 0.064,0.36 0.352,0.592 0.288,0.232 0.68,0.232 z"
       id="text32"
       transform="matrix(0.26458333,0,0,0.26458333,-22.45064,-4.5836724)"
       aria-label="soft clip" />
    <path
       d="m 243.48911,112.72078 h 0.816 v 1.472 h 0.896 v 0.632 h -0.896 v 2.704 h -0.816 v -2.704 h -0.592 v -0.632 h 0.592 z m 2.312,3.104 q 0,-0.504 0.24,-0.904 0.24,-0.408 0.664,-0.64 0.424,-0.232 0.968,-0.232 0.552,0 0.96,0.232 0.416,0.232 0.64,0.64 0.232,0.4 0.232,0.904 0,0.504 -0.232,0.912 -0.232,0.4 -0.648,0.64 -0.408,0.232 -0.968,0.232 -0.528,0 -0.952,-0.216 -0.416,-0.216 -0.664,-0.616 -0.24,-0.408 -0.24,-0.952 z m 0.816,0.008 q 0,0.312 0.136,0.568 0.136,0.248 0.368,0.4 0.24,0.144 0.528,0.144 0.456,0 0.744,-0.32 0.296,-0.32 0.296,-0.792 0,-0.472 -0.296,-0.792 -0.288,-0.328 -0.744,-0.328 -0.296,0 -0.528,0.152 -0.232,0.152 -0.368,0.408 -0.136,0.256 -0.136,0.56 z"
       id="text35"
       style="font-size:8px;font-family:'Reem Kufi';-inkscape-font-specification:'Reem Kufi';white-space:pre;fill:#1a1a1a;stroke-width:2.83465;stroke-linecap:round"
       transform="matrix(0.26458333,0,0,0.26458333,-58.839387,-4.2094951)"
       aria-label="to" />
    <path
       d="m 243.48911,112.72078 h 0.816 v 1.472 h 0.896 v 0.632 h -0.896 v 2.704 h -0.816 v -2.704 h -0.592 v -0.632 h 0.592 z m 2.312,3.104 q 0,-0.504 0.24,-0.904 0.24,-0.408 0.664,-0.64 0.424,-0.232 0.968,-0.232 0.552,0 0.96,0.232 0.416,0.232 0.64,0.64 0.232,0.4 0.232,0.904 0,0.504 -0.232,0.912 -0.232,0.4 -0.648,0.64 -0.408,0.232 -0.968,0.232 -0.528,0 -0.952,-0.216 -0.416,-0.216 -0.664,-0.616 -0.24,-0.408 -0.24,-0.952 z m 0.816,0.008 q 0,0.312 0.136,0.568 0.136,0.248 0.368,0.4 0.24,0.144 0.528,0.144 0.456,0 0.744,-0.32 0.296,-0.32 0.296,-0.792 0,-0.472 -0.296,-0.792 -0.288,-0.328 -0.744,-0.328 -0.296,0 -0.528,0.152 -0.232,0.152 -0.368,0.408 -0.136,0.256 -0.136,0.56 z"
       id="text37"
       style="font-size:8px;font-family:'Reem Kufi';-inkscape-font-specification:'Reem Kufi';white-space:pre;fill:#1a1a1a;stroke-width:2.83465;stroke-linecap:round"
       transform="matrix(0.26458333,0,0,0.26458333,-36.575835,-4.9578498)"
       aria-label="to" />
  </g>
  <g
     inkscape:groupmode="layer"
     id="layer2"
     inkscape:label="components"
     style="display:none">
    <circle
       style="fill:#00ff00;stroke-width:0.465"
       id="path1"
       cx="14.883252"
       cy="113.21037"
       r="3.0427084"
       inkscape:label="MAIN" />
    <circle
       style="fill:#0000ff;stroke-width:0.465"
       id="path2"
       cx="36.049755"
       cy="112.94579"
       r="3.3072915"
       inkscape:label="MAIN" />
    <circle
       style="fill:#ff0000;stroke-width:0.465"
       id="path3"
       cx="14.883252"
       cy="29.076553"
       inkscape:label="FLOOR_MODE"
       r="3.175" />
    <circle
       style="fill:#ff0000;stroke-width:0.465"
       id="ellipse3"
       cx="14.883252"
       cy="54.85154"
       inkscape:label="FLOOR_HEIGHT"
       r="3.175" />
    <circle
       style="fill:#ff0000;stroke-width:0.465"
       id="ellipse4"
       cx="36.049755"
       cy="28.749989"
       inkscape:label="CEILING_MODE"
       r="3.175" />
    <circle
       style="fill:#ff0000;stroke-width:0.465"
       id="ellipse5"
       cx="36.049755"
       cy="54.85154"
       inkscape:label="CEILING_HEIGHT"
       r="3.175" />
    <circle
       style="fill:#00ff00;stroke-width:0.465"
       id="circle5"
       cx="14.883252"
       cy="73.054138"
       r="3.0427084"
       inkscape:label="FLOOR_HEIGHT_CV" />
    <circle
       style="fill:#00ff00;stroke-width:0.465"
       id="circle6"
       cx="36.049755"
       cy="73.116119"
       r="3.0427084"
       inkscape:label="CEILING_HEIGHT_CV" />
    <circle
       style="fill:#0000ff;stroke-width:0.465"
       id="circle7"
       cx="14.750245"
       cy="91.568192"
       r="3.3072915"
       inkscape:label="FLOOR_GATE" />
    <circle
       style="fill:#0000ff;stroke-width:0.465"
       id="circle8"
       cx="36.049755"
       cy="90.859863"
       inkscape:label="CEILING_GATE"
       r="3.3069999" />
  </g>
</svg>
