<?xml version="1.0" encoding="UTF-8" standalone="no"?>
<!-- Created with Inkscape (http://www.inkscape.org/) -->

<svg
   width="10mm"
   height="10mm"
   viewBox="0 0 10 10"
   version="1.1"
   id="svg1"
   inkscape:version="1.4 (86a8ad7, 2024-10-11)"
   sodipodi:docname="16.1on.svg"
   xmlns:inkscape="http://www.inkscape.org/namespaces/inkscape"
   xmlns:sodipodi="http://sodipodi.sourceforge.net/DTD/sodipodi-0.dtd"
   xmlns="http://www.w3.org/2000/svg"
   xmlns:svg="http://www.w3.org/2000/svg">
  <sodipodi:namedview
     id="namedview1"
     pagecolor="#ffffff"
     bordercolor="#000000"
     borderopacity="0.25"
     inkscape:showpageshadow="2"
     inkscape:pageopacity="0.0"
     inkscape:pagecheckerboard="0"
     inkscape:deskcolor="#d1d1d1"
     inkscape:document-units="mm"
     inkscape:zoom="10.009302"
     inkscape:cx="15.036014"
     inkscape:cy="31.320865"
     inkscape:window-width="1920"
     inkscape:window-height="1009"
     inkscape:window-x="-8"
     inkscape:window-y="-8"
     inkscape:window-maximized="1"
     inkscape:current-layer="layer1" />
  <defs
     id="defs1">
    <rect
       x="3.0971191"
       y="26.275558"
       width="32.869425"
       height="21.679833"
       id="rect6" />
    <rect
       x="7.0710678"
       y="12.020815"
       width="45.608388"
       height="36.062446"
       id="rect5" />
    <rect
       x="5.3033009"
       y="7.7781746"
       width="27.577164"
       height="21.566757"
       id="rect4" />
    <rect
       x="6.3932074"
       y="7.8685629"
       width="24.589259"
       height="22.130333"
       id="rect3" />
    <rect
       x="7.3767777"
       y="9.3439184"
       width="23.113904"
       height="22.130333"
       id="rect2" />
  </defs>
  <g
     inkscape:label="Layer 1"
     inkscape:groupmode="layer"
     id="layer1">
    <rect
       style="fill:#ccff00;stroke-width:0.465"
       id="rect1"
       width="10"
       height="10"
       x="0"
       y="0"
       ry="3.3122709"
       rx="2.8625996" />
    <path
       d="m 7.778634,29.327847 v 7.304669 h 1.3476528 q 0.4817697,0 0.6835921,0.188802 0.2083331,0.182291 0.2083331,0.48177 0,0.292968 -0.2083331,0.481769 -0.2018224,0.182292 -0.6835921,0.182292 H 5.0963491 q -0.4817696,0 -0.6901024,-0.182292 -0.2018224,-0.188801 -0.2018224,-0.48828 0,-0.292968 0.2018224,-0.475259 0.2083328,-0.188802 0.6901024,-0.188802 H 6.444002 v -5.566392 l -1.1914033,0.3125 q -0.2864576,0.07812 -0.4296864,0.07812 -0.2539056,0 -0.4427072,-0.201822 -0.1822912,-0.201823 -0.1822912,-0.494791 0,-0.266926 0.1367184,-0.416665 0.1367184,-0.15625 0.5729152,-0.273437 z m 6.067693,4.082021 q 0.481769,-0.403644 0.917966,-0.585936 0.436197,-0.188801 0.930988,-0.188801 1.048174,0 1.835932,0.833331 0.787759,0.833331 0.787759,2.089838 0,1.165362 -0.735675,1.888016 -0.729165,0.716145 -1.985672,0.716145 -1.048175,0 -1.725257,-0.48828 -0.677081,-0.488281 -1.022132,-1.503903 -0.345052,-1.015622 -0.345052,-2.265619 0,-1.497392 0.683592,-2.486973 0.683592,-0.996091 1.608069,-1.542965 0.924477,-0.546874 1.95312,-0.546874 0.8138,0 1.263018,0.31901 0.292968,0.214843 0.292968,0.546874 0,0.292968 -0.195312,0.49479 -0.195312,0.195312 -0.468749,0.195312 -0.156249,0 -0.449217,-0.15625 -0.175781,-0.09115 -0.338541,-0.09115 -0.638019,0 -1.321611,0.364582 -0.683592,0.358072 -1.184893,1.106768 -0.345052,0.520832 -0.501301,1.30208 z m 0.195312,2.063797 q 0.208333,0.781248 0.559894,1.067706 0.358072,0.286457 1.015623,0.286457 0.65755,0 1.009112,-0.345051 0.358072,-0.345051 0.358072,-0.937497 0,-0.677082 -0.410155,-1.1263 -0.403645,-0.449217 -0.911456,-0.449217 -0.403645,0 -0.865884,0.397134 -0.455728,0.397135 -0.755206,1.106768 z M 24.106717,32.94763 q 0,0.377603 -0.266926,0.631509 -0.266926,0.253905 -0.735675,0.253905 -0.468749,0 -0.735675,-0.253905 -0.266927,-0.253906 -0.266927,-0.631509 0,-0.377603 0.266927,-0.631509 0.266926,-0.253905 0.735675,-0.253905 0.468749,0 0.735675,0.253905 0.266926,0.253906 0.266926,0.631509 z m 0.01302,4.368478 q 0,0.377604 -0.266926,0.631509 -0.266927,0.253906 -0.735675,0.253906 -0.468749,0 -0.735676,-0.253906 -0.266926,-0.253905 -0.266926,-0.631509 0,-0.377603 0.266926,-0.631508 0.266927,-0.253906 0.735676,-0.253906 0.468748,0 0.735675,0.253906 0.266926,0.253905 0.266926,0.631508 z m 7.662741,-7.988261 v 7.304669 h 1.347653 q 0.48177,0 0.683592,0.188802 0.208333,0.182291 0.208333,0.48177 0,0.292968 -0.208333,0.481769 -0.201822,0.182292 -0.683592,0.182292 h -4.029938 q -0.481769,0 -0.690102,-0.182292 -0.201822,-0.188801 -0.201822,-0.48828 0,-0.292968 0.201822,-0.475259 0.208333,-0.188802 0.690102,-0.188802 h 1.347653 v -5.566392 l -1.191403,0.3125 q -0.286458,0.07812 -0.429686,0.07812 -0.253906,0 -0.442708,-0.201822 -0.182291,-0.201823 -0.182291,-0.494791 0,-0.266926 0.136719,-0.416665 0.136718,-0.15625 0.572915,-0.273437 z"
       id="text1"
       style="font-weight:bold;font-size:13.3333px;font-family:'Courier New';-inkscape-font-specification:'Courier New Bold';white-space:pre;fill:#668000;stroke-width:1.75748"
       transform="matrix(0.26458333,0,0,0.26458333,-0.05618357,-3.9335728)"
       aria-label="16:1" />
  </g>
</svg>
