<?xml version="1.0" encoding="UTF-8" standalone="no"?>
<!-- Created with Inkscape (http://www.inkscape.org/) -->

<svg
   width="10mm"
   height="10mm"
   viewBox="0 0 10 10"
   version="1.1"
   id="svg1"
   inkscape:version="1.4 (86a8ad7, 2024-10-11)"
   sodipodi:docname="3.1off.svg"
   xmlns:inkscape="http://www.inkscape.org/namespaces/inkscape"
   xmlns:sodipodi="http://sodipodi.sourceforge.net/DTD/sodipodi-0.dtd"
   xmlns="http://www.w3.org/2000/svg"
   xmlns:svg="http://www.w3.org/2000/svg">
  <sodipodi:namedview
     id="namedview1"
     pagecolor="#ffffff"
     bordercolor="#000000"
     borderopacity="0.25"
     inkscape:showpageshadow="2"
     inkscape:pageopacity="0.0"
     inkscape:pagecheckerboard="0"
     inkscape:deskcolor="#d1d1d1"
     inkscape:document-units="mm"
     inkscape:zoom="11.313708"
     inkscape:cx="15.335378"
     inkscape:cy="33.366601"
     inkscape:window-width="1920"
     inkscape:window-height="1009"
     inkscape:window-x="-8"
     inkscape:window-y="-8"
     inkscape:window-maximized="1"
     inkscape:current-layer="layer1" />
  <defs
     id="defs1">
    <rect
       x="4.2426407"
       y="27.311999"
       width="29.168155"
       height="23.953242"
       id="rect8" />
    <rect
       x="2.997212"
       y="26.275558"
       width="34.798064"
       height="28.473514"
       id="rect7" />
    <rect
       x="3.4967473"
       y="26.075744"
       width="33.768588"
       height="23.178439"
       id="rect6" />
    <rect
       x="7.0710678"
       y="12.020815"
       width="45.608388"
       height="36.062446"
       id="rect5" />
    <rect
       x="5.3033009"
       y="7.7781746"
       width="27.577164"
       height="21.566757"
       id="rect4" />
    <rect
       x="6.3932074"
       y="7.8685629"
       width="24.589259"
       height="22.130333"
       id="rect3" />
    <rect
       x="7.3767777"
       y="9.3439184"
       width="23.113904"
       height="22.130333"
       id="rect2" />
  </defs>
  <g
     inkscape:label="Layer 1"
     inkscape:groupmode="layer"
     id="layer1">
    <rect
       style="fill:#668000;stroke-width:0.465"
       id="rect1"
       width="10"
       height="10"
       x="0"
       y="0"
       ry="3.3122709"
       rx="2.8625996" />
    <path
       d="m 11.328125,35.991082 q 0.710938,0.484375 1.0625,1.125 0.351563,0.632813 0.351563,1.421875 0,0.851563 -0.46875,1.578125 -0.460938,0.71875 -1.34375,1.09375 -0.882813,0.367188 -2.3125005,0.367188 -1.859375,0 -2.796875,-0.578125 -0.5234375,-0.328125 -0.5234375,-0.78125 0,-0.34375 0.2265625,-0.578125 0.234375,-0.242188 0.5625,-0.242188 0.2265625,0 0.46875,0.15625 0.34375,0.234375 0.6484375,0.3125 0.46875,0.109375 1.2890625,0.109375 1.3984375,0 2.0234375,-0.359375 0.625,-0.367187 0.625,-1.03125 0,-0.492187 -0.367187,-0.945312 Q 10.414063,37.178582 9.8046875,36.928582 9.453125,36.787957 8.6171875,36.73327 8.21875,36.709832 8,36.491082 7.7890625,36.26452 7.7890625,35.936395 q 0,-0.34375 0.234375,-0.578125 0.234375,-0.234375 0.59375,-0.234375 0.796875,0 0.8515625,-0.0078 0.3125,-0.03125 0.625,-0.203125 0.3125,-0.171875 0.5,-0.46875 0.195313,-0.304687 0.195313,-0.625 0,-0.507812 -0.453125,-0.875 -0.445313,-0.375 -1.3437505,-0.375 -1.15625,0 -1.765625,0.671875 -0.1796875,0.195313 -0.2890625,0.25 -0.1640625,0.08594 -0.3671875,0.08594 -0.328125,0 -0.5625,-0.234375 -0.234375,-0.234375 -0.234375,-0.578125 0,-0.539063 0.71875,-1.046875 1.046875,-0.742188 2.6171875,-0.742188 1.484375,0 2.382813,0.84375 0.898437,0.84375 0.898437,2.03125 0,0.617188 -0.265625,1.15625 -0.265625,0.53125 -0.796875,0.984375 z m 8.523437,-0.671875 q 0,0.453125 -0.320312,0.757813 -0.320313,0.304687 -0.882813,0.304687 -0.5625,0 -0.882812,-0.304687 -0.320313,-0.304688 -0.320313,-0.757813 0,-0.453125 0.320313,-0.757812 0.320312,-0.304688 0.882812,-0.304688 0.5625,0 0.882813,0.304688 0.320312,0.304687 0.320312,0.757812 z m 0.01563,5.242188 q 0,0.453125 -0.320312,0.757812 -0.320313,0.304688 -0.882813,0.304688 -0.5625,0 -0.882812,-0.304688 -0.320313,-0.304687 -0.320313,-0.757812 0,-0.453125 0.320313,-0.757813 0.320312,-0.304687 0.882812,-0.304687 0.5625,0 0.882813,0.304687 0.320312,0.304688 0.320312,0.757813 z M 29.0625,30.975457 v 8.765625 h 1.617187 q 0.578125,0 0.820313,0.226563 0.25,0.21875 0.25,0.578125 0,0.351562 -0.25,0.578125 -0.242188,0.21875 -0.820313,0.21875 H 25.84375 q -0.578125,0 -0.828125,-0.21875 -0.242188,-0.226563 -0.242188,-0.585938 0,-0.351562 0.242188,-0.570312 0.25,-0.226563 0.828125,-0.226563 h 1.617187 v -6.679687 l -1.429687,0.375 q -0.34375,0.09375 -0.515625,0.09375 -0.304688,0 -0.53125,-0.242188 -0.21875,-0.242187 -0.21875,-0.59375 0,-0.320312 0.164062,-0.5 0.164063,-0.1875 0.6875,-0.328125 z"
       id="text8"
       style="font-weight:bold;font-size:16px;font-family:'Courier New';-inkscape-font-specification:'Courier New Bold';white-space:pre;fill:#ccff00;stroke-width:1.75748"
       transform="matrix(0.26458333,0,0,0.26458333,0.06386725,-4.6042892)"
       aria-label="3:1" />
  </g>
</svg>
