<?xml version="1.0" encoding="UTF-8" standalone="no"?>
<!-- Created with Inkscape (http://www.inkscape.org/) -->

<svg
   width="10mm"
   height="10mm"
   viewBox="0 0 10 10"
   version="1.1"
   id="svg1"
   inkscape:version="1.4 (86a8ad7, 2024-10-11)"
   sodipodi:docname="32-1Off.svg"
   xmlns:inkscape="http://www.inkscape.org/namespaces/inkscape"
   xmlns:sodipodi="http://sodipodi.sourceforge.net/DTD/sodipodi-0.dtd"
   xmlns="http://www.w3.org/2000/svg"
   xmlns:svg="http://www.w3.org/2000/svg">
  <sodipodi:namedview
     id="namedview1"
     pagecolor="#ffffff"
     bordercolor="#000000"
     borderopacity="0.25"
     inkscape:showpageshadow="2"
     inkscape:pageopacity="0.0"
     inkscape:pagecheckerboard="0"
     inkscape:deskcolor="#d1d1d1"
     inkscape:document-units="mm"
     inkscape:zoom="10.009302"
     inkscape:cx="15.085967"
     inkscape:cy="32.919378"
     inkscape:window-width="1920"
     inkscape:window-height="1009"
     inkscape:window-x="-8"
     inkscape:window-y="-8"
     inkscape:window-maximized="1"
     inkscape:current-layer="layer1" />
  <defs
     id="defs1">
    <rect
       x="7.0710678"
       y="12.020815"
       width="45.608388"
       height="36.062446"
       id="rect5" />
    <rect
       x="5.3033009"
       y="7.7781746"
       width="27.577164"
       height="21.566757"
       id="rect4" />
    <rect
       x="6.3932074"
       y="7.8685629"
       width="24.589259"
       height="22.130333"
       id="rect3" />
    <rect
       x="7.3767777"
       y="9.3439184"
       width="23.113904"
       height="22.130333"
       id="rect2" />
  </defs>
  <g
     inkscape:label="Layer 1"
     inkscape:groupmode="layer"
     id="layer1">
    <rect
       style="fill:#668000;stroke-width:0.465"
       id="rect1"
       width="10"
       height="10"
       x="0"
       y="0"
       ry="3.3122709"
       rx="2.8625996" />
    <path
       d="m 2.3257458,4.8621959 q 0.156752,0.1067981 0.2342667,0.2480471 0.077515,0.1395264 0.077515,0.3135039 0,0.1877578 -0.103353,0.3479548 -0.1016304,0.1584745 -0.2962784,0.2411569 -0.194648,0.08096 -0.5098744,0.08096 -0.4099667,0 -0.6166725,-0.1274686 -0.11541081,-0.072347 -0.11541081,-0.1722549 0,-0.075792 0.0499539,-0.1274686 0.051676,-0.053399 0.1240235,-0.053399 0.049954,0 0.103353,0.034451 0.075792,0.051677 0.1429715,0.068902 0.1033529,0.024116 0.2842206,0.024116 0.3083362,0 0.4461401,-0.079237 0.1378039,-0.08096 0.1378039,-0.2273764 0,-0.1085206 -0.08096,-0.2084284 -0.079237,-0.1016304 -0.213596,-0.156752 -0.077515,-0.031006 -0.2618274,-0.043064 -0.08785,-0.00517 -0.1360814,-0.053399 -0.046509,-0.049954 -0.046509,-0.122301 0,-0.075792 0.051676,-0.1274686 0.051677,-0.051677 0.1309138,-0.051677 0.1756999,0 0.1877578,-0.00172 0.068902,-0.00689 0.1378039,-0.044786 0.068902,-0.037896 0.1102431,-0.1033529 0.043064,-0.067179 0.043064,-0.1378039 0,-0.1119657 -0.099908,-0.1929255 -0.098185,-0.082682 -0.2962784,-0.082682 -0.2549372,0 -0.389296,0.1481393 -0.039619,0.043064 -0.063734,0.055121 -0.036174,0.018948 -0.08096,0.018948 -0.072347,0 -0.1240236,-0.051677 -0.051676,-0.051677 -0.051676,-0.1274686 0,-0.1188559 0.1584745,-0.2308216 0.2308215,-0.1636421 0.5770538,-0.1636421 0.3272843,0 0.5253774,0.1860353 0.1980932,0.1860352 0.1980932,0.4478627 0,0.1360813 -0.058567,0.2549372 -0.058567,0.1171333 -0.1757,0.2170411 z m 1.2832989,0.8268235 h 0.7734244 q 0.063734,-0.051677 0.1205784,-0.051677 0.08096,0 0.1274686,0.053399 0.048231,0.053399 0.048231,0.1825902 V 6.0421419 H 3.0698869 V 5.6683488 q 0.954292,-0.7872048 1.1523852,-1.0128587 0.099908,-0.1154108 0.099908,-0.2187637 0,-0.1291912 -0.1136882,-0.2273765 -0.1119657,-0.099908 -0.2997235,-0.099908 -0.1894804,0 -0.3152265,0.1102431 -0.065457,0.058567 -0.1050755,0.1739775 -0.024116,0.072347 -0.067179,0.1033529 -0.041341,0.031006 -0.1033529,0.031006 -0.072347,0 -0.1257461,-0.051677 -0.051676,-0.051677 -0.051676,-0.1205784 0,-0.1033529 0.09474,-0.2583823 0.096463,-0.1550294 0.2790529,-0.2480471 0.1843127,-0.093018 0.3996313,-0.093018 0.3341745,0 0.5477705,0.2032607 0.2135961,0.2015383 0.2135961,0.4892039 0,0.1464167 -0.062012,0.2721627 Q 4.5530014,4.8449705 4.3204573,5.0654567 4.1378672,5.2394341 3.6090447,5.6890194 Z M 6.7837022,3.8545049 5.6519876,6.293634 q -0.043064,0.091295 -0.077515,0.1188559 -0.044786,0.036174 -0.1085206,0.036174 -0.072347,0 -0.1257461,-0.051676 -0.051676,-0.051677 -0.051676,-0.1171333 0,-0.046509 0.041341,-0.1360814 L 6.4650306,3.7063657 q 0.043064,-0.091295 0.075792,-0.1188559 0.046509,-0.036173 0.1085206,-0.036173 0.072347,0 0.1240235,0.051676 0.051676,0.049954 0.051676,0.1154108 0,0.046509 -0.041341,0.1360814 z m 1.5692419,-0.098185 v 1.9326998 h 0.3565676 q 0.1274687,0 0.1808677,0.049954 0.055122,0.048231 0.055122,0.1274686 0,0.077515 -0.055122,0.1274686 -0.053399,0.048231 -0.1808677,0.048231 H 7.643254 q -0.1274686,0 -0.1825902,-0.048231 -0.053399,-0.049954 -0.053399,-0.1291911 0,-0.077515 0.053399,-0.1257461 0.055122,-0.049954 0.1825902,-0.049954 H 7.9998216 V 4.2162401 l -0.3152264,0.082682 q -0.075792,0.020671 -0.1136883,0.020671 -0.067179,0 -0.1171333,-0.053399 -0.048231,-0.053399 -0.048231,-0.1309137 0,-0.070625 0.036174,-0.1102431 0.036174,-0.041341 0.1515843,-0.072347 z"
       id="text7"
       style="font-weight:bold;font-size:3.52778px;font-family:'Courier New';-inkscape-font-specification:'Courier New Bold';fill:#ccff00;stroke-width:0.465"
       aria-label="32/1" />
  </g>
</svg>
