<?xml version="1.0" encoding="UTF-8" standalone="no"?>
<!-- Created with Inkscape (http://www.inkscape.org/) -->

<svg
   width="10mm"
   height="10mm"
   viewBox="0 0 10 10"
   version="1.1"
   id="svg1"
   inkscape:version="1.4 (86a8ad7, 2024-10-11)"
   sodipodi:docname="32.1on.svg"
   xmlns:inkscape="http://www.inkscape.org/namespaces/inkscape"
   xmlns:sodipodi="http://sodipodi.sourceforge.net/DTD/sodipodi-0.dtd"
   xmlns="http://www.w3.org/2000/svg"
   xmlns:svg="http://www.w3.org/2000/svg">
  <sodipodi:namedview
     id="namedview1"
     pagecolor="#ffffff"
     bordercolor="#000000"
     borderopacity="0.25"
     inkscape:showpageshadow="2"
     inkscape:pageopacity="0.0"
     inkscape:pagecheckerboard="0"
     inkscape:deskcolor="#d1d1d1"
     inkscape:document-units="mm"
     inkscape:zoom="10.009302"
     inkscape:cx="15.036014"
     inkscape:cy="31.320865"
     inkscape:window-width="1920"
     inkscape:window-height="1009"
     inkscape:window-x="-8"
     inkscape:window-y="-8"
     inkscape:window-maximized="1"
     inkscape:current-layer="layer1" />
  <defs
     id="defs1">
    <rect
       x="3.0971191"
       y="26.275558"
       width="32.869425"
       height="21.679833"
       id="rect6" />
    <rect
       x="7.0710678"
       y="12.020815"
       width="45.608388"
       height="36.062446"
       id="rect5" />
    <rect
       x="5.3033009"
       y="7.7781746"
       width="27.577164"
       height="21.566757"
       id="rect4" />
    <rect
       x="6.3932074"
       y="7.8685629"
       width="24.589259"
       height="22.130333"
       id="rect3" />
    <rect
       x="7.3767777"
       y="9.3439184"
       width="23.113904"
       height="22.130333"
       id="rect2" />
  </defs>
  <g
     inkscape:label="Layer 1"
     inkscape:groupmode="layer"
     id="layer1">
    <rect
       style="fill:#ccff00;stroke-width:0.465"
       id="rect1"
       width="10"
       height="10"
       x="0"
       y="0"
       ry="3.3122709"
       rx="2.8625996" />
    <path
       d="m 9.0025892,33.507524 q 0.5924465,0.403645 0.8854145,0.937498 0.2929683,0.527342 0.2929683,1.184893 0,0.709633 -0.3906243,1.315101 -0.3841136,0.598957 -1.1197889,0.911456 -0.7356752,0.305989 -1.9270784,0.305989 -1.5494753,0 -2.3307233,-0.48177 -0.4361968,-0.273437 -0.4361968,-0.65104 0,-0.286458 0.1888016,-0.48177 0.195312,-0.201822 0.4687488,-0.201822 0.1888016,0 0.390624,0.130208 0.2864576,0.195312 0.5403632,0.260416 0.390624,0.09114 1.0742161,0.09114 1.1653616,0 1.6861936,-0.299478 0.520832,-0.305989 0.520832,-0.859373 0,-0.410155 -0.3059888,-0.787758 Q 8.2408724,34.497105 7.7330612,34.288772 7.4400932,34.171585 6.7434804,34.126012 6.41145,34.106481 6.2291588,33.92419 6.0533779,33.735388 6.0533779,33.461952 q 0,-0.286458 0.1953121,-0.48177 0.195312,-0.195312 0.4947904,-0.195312 0.6640608,0 0.7096336,-0.0065 0.260416,-0.02604 0.520832,-0.169271 0.260416,-0.143229 0.4166656,-0.390624 0.16276,-0.253905 0.16276,-0.520832 0,-0.423176 -0.3776032,-0.729165 -0.3710928,-0.312499 -1.1197888,-0.312499 -0.9635393,0 -1.4713505,0.559894 -0.1497392,0.162761 -0.2408848,0.208333 -0.1367184,0.07162 -0.3059888,0.07162 -0.2734368,0 -0.4687488,-0.195312 -0.195312,-0.195312 -0.195312,-0.48177 0,-0.449218 0.5989568,-0.872394 0.8723936,-0.618488 2.1809841,-0.618488 1.236976,0 1.985672,0.703124 0.7486961,0.703123 0.7486961,1.692704 0,0.514321 -0.2213536,0.963539 -0.2213536,0.442707 -0.6640609,0.82031 z m 4.8502478,3.124992 h 2.92317 q 0.240885,-0.195312 0.455728,-0.195312 0.305989,0 0.48177,0.201823 0.182291,0.201822 0.182291,0.690102 v 0.63802 h -6.080714 v -1.412757 q 3.606762,-2.975253 4.355458,-3.828116 0.377603,-0.436196 0.377603,-0.82682 0,-0.48828 -0.429686,-0.859373 -0.423176,-0.377604 -1.13281,-0.377604 -0.716144,0 -1.191403,0.416666 -0.247396,0.221354 -0.397135,0.657551 -0.09115,0.273436 -0.253905,0.390624 -0.15625,0.117187 -0.390624,0.117187 -0.273437,0 -0.47526,-0.195312 -0.195312,-0.195312 -0.195312,-0.455728 0,-0.390624 0.358072,-0.97656 0.364583,-0.585936 1.054685,-0.937498 0.696613,-0.351562 1.510413,-0.351562 1.263018,0 2.070307,0.768228 0.80729,0.761716 0.80729,1.848953 0,0.553384 -0.234374,1.028644 -0.227864,0.468748 -1.106768,1.30208 -0.690103,0.65755 -2.688796,2.356764 z m 10.25388,-3.684886 q 0,0.377603 -0.266926,0.631509 -0.266926,0.253905 -0.735675,0.253905 -0.468749,0 -0.735675,-0.253905 -0.266927,-0.253906 -0.266927,-0.631509 0,-0.377603 0.266927,-0.631509 0.266926,-0.253905 0.735675,-0.253905 0.468749,0 0.735675,0.253905 0.266926,0.253906 0.266926,0.631509 z m 0.01302,4.368478 q 0,0.377604 -0.266926,0.631509 -0.266927,0.253906 -0.735675,0.253906 -0.468749,0 -0.735676,-0.253906 -0.266926,-0.253905 -0.266926,-0.631509 0,-0.377603 0.266926,-0.631508 0.266927,-0.253906 0.735676,-0.253906 0.468748,0 0.735675,0.253906 0.266926,0.253905 0.266926,0.631508 z m 7.662741,-7.988261 v 7.304669 h 1.347653 q 0.48177,0 0.683592,0.188802 0.208333,0.182291 0.208333,0.48177 0,0.292968 -0.208333,0.481769 -0.201822,0.182292 -0.683592,0.182292 h -4.029938 q -0.481769,0 -0.690102,-0.182292 -0.201822,-0.188801 -0.201822,-0.48828 0,-0.292968 0.201822,-0.475259 0.208333,-0.188802 0.690102,-0.188802 h 1.347653 v -5.566392 l -1.191403,0.3125 q -0.286458,0.07812 -0.429686,0.07812 -0.253906,0 -0.442708,-0.201822 -0.182291,-0.201823 -0.182291,-0.494791 0,-0.266926 0.136719,-0.416665 0.136718,-0.15625 0.572915,-0.273437 z"
       id="text1"
       style="font-weight:bold;font-size:13.3333px;font-family:'Courier New';-inkscape-font-specification:'Courier New Bold';white-space:pre;fill:#668000;stroke-width:1.75748"
       transform="matrix(0.26458333,0,0,0.26458333,-0.05618357,-3.9335728)"
       aria-label="32:1" />
  </g>
</svg>
