<?xml version="1.0" encoding="UTF-8" standalone="no"?>
<!-- Created with Inkscape (http://www.inkscape.org/) -->

<svg
   width="10mm"
   height="10mm"
   viewBox="0 0 10 10"
   version="1.1"
   id="svg1"
   inkscape:version="1.4 (86a8ad7, 2024-10-11)"
   sodipodi:docname="4-1Off.svg"
   xmlns:inkscape="http://www.inkscape.org/namespaces/inkscape"
   xmlns:sodipodi="http://sodipodi.sourceforge.net/DTD/sodipodi-0.dtd"
   xmlns="http://www.w3.org/2000/svg"
   xmlns:svg="http://www.w3.org/2000/svg">
  <sodipodi:namedview
     id="namedview1"
     pagecolor="#ffffff"
     bordercolor="#000000"
     borderopacity="0.25"
     inkscape:showpageshadow="2"
     inkscape:pageopacity="0.0"
     inkscape:pagecheckerboard="0"
     inkscape:deskcolor="#d1d1d1"
     inkscape:document-units="mm"
     inkscape:zoom="10.009302"
     inkscape:cx="15.085967"
     inkscape:cy="32.919378"
     inkscape:window-width="1920"
     inkscape:window-height="1009"
     inkscape:window-x="-8"
     inkscape:window-y="-8"
     inkscape:window-maximized="1"
     inkscape:current-layer="layer1" />
  <defs
     id="defs1">
    <rect
       x="7.0710678"
       y="12.020815"
       width="45.608388"
       height="36.062446"
       id="rect5" />
    <rect
       x="5.3033009"
       y="7.7781746"
       width="27.577164"
       height="21.566757"
       id="rect4" />
    <rect
       x="6.3932074"
       y="7.8685629"
       width="24.589259"
       height="22.130333"
       id="rect3" />
    <rect
       x="7.3767777"
       y="9.3439184"
       width="23.113904"
       height="22.130333"
       id="rect2" />
  </defs>
  <g
     inkscape:label="Layer 1"
     inkscape:groupmode="layer"
     id="layer1">
    <rect
       style="fill:#668000;stroke-width:0.465"
       id="rect1"
       width="10"
       height="10"
       x="0"
       y="0"
       ry="3.3122709"
       rx="2.8625996" />
    <path
       d="m 3.1344825,3.5757985 v 1.6577786 q 0.1343586,0 0.1984373,0.059945 0.064079,0.057878 0.064079,0.150895 0,0.093018 -0.066146,0.1529621 -0.064079,0.059945 -0.1963702,0.059945 V 5.826822 q 0.1343586,0 0.1984373,0.059945 0.064079,0.059945 0.064079,0.1529621 0,0.093017 -0.066146,0.1529621 -0.064079,0.057878 -0.2170408,0.057878 H 2.5453716 q -0.1529621,0 -0.2191079,-0.057878 -0.064079,-0.059945 -0.064079,-0.1550291 0,-0.093018 0.064079,-0.1508951 0.066146,-0.059945 0.2191079,-0.059945 H 2.7107361 V 5.6573234 h -1.15135 V 5.3038569 L 2.5743104,3.5757985 Z M 2.7107361,5.2335771 V 4.1917811 L 2.0968206,5.2335771 Z M 5.9270745,3.6254078 4.569019,6.5523585 q -0.051676,0.1095539 -0.093018,0.1426268 -0.053743,0.043408 -0.1302245,0.043408 -0.086816,0 -0.1508951,-0.062012 -0.062012,-0.062012 -0.062012,-0.1405597 0,-0.05581 0.049609,-0.1632974 L 5.5446692,3.4476411 q 0.051676,-0.109554 0.09095,-0.1426269 0.05581,-0.043408 0.1302245,-0.043408 0.086816,0 0.148828,0.062012 0.062012,0.059945 0.062012,0.1384927 0,0.055811 -0.049609,0.1632974 z M 7.810162,3.5075857 V 5.826822 h 0.4278805 q 0.1529622,0 0.2170409,0.059945 0.066146,0.057878 0.066146,0.1529621 0,0.093017 -0.066146,0.1529621 -0.064079,0.057878 -0.2170409,0.057878 H 6.9585352 q -0.1529622,0 -0.2191079,-0.057878 -0.064079,-0.059945 -0.064079,-0.1550291 0,-0.093018 0.064079,-0.1508951 Q 6.805573,5.826822 6.9585352,5.826822 H 7.3864157 V 4.0594895 l -0.3782712,0.099219 q -0.09095,0.024805 -0.1364257,0.024805 -0.080615,0 -0.1405598,-0.064079 -0.057878,-0.064079 -0.057878,-0.1570962 0,-0.084749 0.043408,-0.1322916 0.043408,-0.049609 0.1819008,-0.086816 z"
       id="text7"
       style="font-weight:bold;font-size:4.23333px;font-family:'Courier New';-inkscape-font-specification:'Courier New Bold';fill:#ccff00;stroke-width:0.465"
       aria-label="4/1" />
  </g>
</svg>
