<?xml version="1.0" encoding="UTF-8" standalone="no"?>
<!-- Created with Inkscape (http://www.inkscape.org/) -->

<svg
   width="10mm"
   height="10mm"
   viewBox="0 0 10 10"
   version="1.1"
   id="svg1"
   inkscape:version="1.4 (86a8ad7, 2024-10-11)"
   sodipodi:docname="4-5On.svg"
   xmlns:inkscape="http://www.inkscape.org/namespaces/inkscape"
   xmlns:sodipodi="http://sodipodi.sourceforge.net/DTD/sodipodi-0.dtd"
   xmlns="http://www.w3.org/2000/svg"
   xmlns:svg="http://www.w3.org/2000/svg">
  <sodipodi:namedview
     id="namedview1"
     pagecolor="#ffffff"
     bordercolor="#000000"
     borderopacity="0.25"
     inkscape:showpageshadow="2"
     inkscape:pageopacity="0.0"
     inkscape:pagecheckerboard="0"
     inkscape:deskcolor="#d1d1d1"
     inkscape:document-units="mm"
     inkscape:zoom="10.009302"
     inkscape:cx="15.085967"
     inkscape:cy="32.819471"
     inkscape:window-width="1920"
     inkscape:window-height="1009"
     inkscape:window-x="-8"
     inkscape:window-y="-8"
     inkscape:window-maximized="1"
     inkscape:current-layer="layer1" />
  <defs
     id="defs1">
    <rect
       x="7.0710678"
       y="12.020815"
       width="45.608388"
       height="36.062446"
       id="rect5" />
    <rect
       x="5.3033009"
       y="7.7781746"
       width="27.577164"
       height="21.566757"
       id="rect4" />
    <rect
       x="6.3932074"
       y="7.8685629"
       width="24.589259"
       height="22.130333"
       id="rect3" />
    <rect
       x="7.3767777"
       y="9.3439184"
       width="23.113904"
       height="22.130333"
       id="rect2" />
  </defs>
  <g
     inkscape:label="Layer 1"
     inkscape:groupmode="layer"
     id="layer1">
    <rect
       style="fill:#ccff00;stroke-width:0.465"
       id="rect1"
       width="10"
       height="10"
       x="0"
       y="0"
       ry="3.3122709"
       rx="2.8625996" />
    <path
       d="m 3.1344825,3.5757985 v 1.6577786 q 0.1343586,0 0.1984373,0.059945 0.064079,0.057878 0.064079,0.150895 0,0.093018 -0.066146,0.1529621 -0.064079,0.059945 -0.1963702,0.059945 V 5.826822 q 0.1343586,0 0.1984373,0.059945 0.064079,0.059945 0.064079,0.1529621 0,0.093017 -0.066146,0.1529621 -0.064079,0.057878 -0.2170408,0.057878 H 2.5453716 q -0.1529621,0 -0.2191079,-0.057878 -0.064079,-0.059945 -0.064079,-0.1550291 0,-0.093018 0.064079,-0.1508951 0.066146,-0.059945 0.2191079,-0.059945 H 2.7107361 V 5.6573234 h -1.15135 V 5.3038569 L 2.5743104,3.5757985 Z M 2.7107361,5.2335771 V 4.1917811 L 2.0968206,5.2335771 Z M 5.9270745,3.6254078 4.569019,6.5523585 q -0.051676,0.1095539 -0.093018,0.1426268 -0.053743,0.043408 -0.1302245,0.043408 -0.086816,0 -0.1508951,-0.062012 -0.062012,-0.062012 -0.062012,-0.1405597 0,-0.05581 0.049609,-0.1632974 L 5.5446692,3.4476411 q 0.051676,-0.109554 0.09095,-0.1426269 0.05581,-0.043408 0.1302245,-0.043408 0.086816,0 0.148828,0.062012 0.062012,0.059945 0.062012,0.1384927 0,0.055811 -0.049609,0.1632974 z m 1.3105132,0.3741371 v 0.5043615 q 0.2356443,-0.074414 0.4278805,-0.074414 0.3906735,0 0.6490554,0.2666502 0.2583819,0.2666502 0.2583819,0.6883295 0,0.4340817 -0.262516,0.6821283 -0.260449,0.2459797 -0.7999505,0.2459797 -0.4754228,0 -0.7524082,-0.1798339 -0.1612304,-0.1033528 -0.1612304,-0.2377114 0,-0.084749 0.062012,-0.1467609 0.064079,-0.064079 0.1508951,-0.064079 0.072347,0 0.1570962,0.07028 0.084749,0.068213 0.1777668,0.095085 0.1322915,0.039274 0.3389971,0.039274 0.3844723,0 0.5250321,-0.1219563 0.1405598,-0.1240233 0.1405598,-0.3782712 0,-0.2501137 -0.1364257,-0.3927405 -0.1343586,-0.1426269 -0.3472653,-0.1426269 -0.2294432,0 -0.5229651,0.148828 -0.066146,0.03514 -0.1157551,0.03514 -0.090951,0 -0.1529621,-0.066146 -0.059945,-0.066146 -0.059945,-0.1715656 V 3.5757985 h 1.2960438 q 0.1529621,0 0.2170408,0.059945 0.066146,0.057878 0.066146,0.1529621 0,0.093018 -0.066146,0.1529621 -0.064079,0.057878 -0.2170408,0.057878 z"
       id="text7"
       style="font-weight:bold;font-size:4.23333px;font-family:'Courier New';-inkscape-font-specification:'Courier New Bold';fill:#668000;stroke-width:0.465"
       aria-label="4/5" />
  </g>
</svg>
