<?xml version="1.0" encoding="UTF-8" standalone="no"?>
<!-- Created with Inkscape (http://www.inkscape.org/) -->

<svg
   width="10mm"
   height="10mm"
   viewBox="0 0 10 10"
   version="1.1"
   id="svg1"
   inkscape:version="1.4 (86a8ad7, 2024-10-11)"
   sodipodi:docname="5.1on.svg"
   xmlns:inkscape="http://www.inkscape.org/namespaces/inkscape"
   xmlns:sodipodi="http://sodipodi.sourceforge.net/DTD/sodipodi-0.dtd"
   xmlns="http://www.w3.org/2000/svg"
   xmlns:svg="http://www.w3.org/2000/svg">
  <sodipodi:namedview
     id="namedview1"
     pagecolor="#ffffff"
     bordercolor="#000000"
     borderopacity="0.25"
     inkscape:showpageshadow="2"
     inkscape:pageopacity="0.0"
     inkscape:pagecheckerboard="0"
     inkscape:deskcolor="#d1d1d1"
     inkscape:document-units="mm"
     inkscape:zoom="11.313708"
     inkscape:cx="15.335378"
     inkscape:cy="33.366601"
     inkscape:window-width="1920"
     inkscape:window-height="1009"
     inkscape:window-x="-8"
     inkscape:window-y="-8"
     inkscape:window-maximized="1"
     inkscape:current-layer="layer1" />
  <defs
     id="defs1">
    <rect
       x="4.2426407"
       y="27.311999"
       width="29.168155"
       height="23.953242"
       id="rect8" />
    <rect
       x="2.997212"
       y="26.275558"
       width="34.798064"
       height="28.473514"
       id="rect7" />
    <rect
       x="3.4967473"
       y="26.075744"
       width="33.768588"
       height="23.178439"
       id="rect6" />
    <rect
       x="7.0710678"
       y="12.020815"
       width="45.608388"
       height="36.062446"
       id="rect5" />
    <rect
       x="5.3033009"
       y="7.7781746"
       width="27.577164"
       height="21.566757"
       id="rect4" />
    <rect
       x="6.3932074"
       y="7.8685629"
       width="24.589259"
       height="22.130333"
       id="rect3" />
    <rect
       x="7.3767777"
       y="9.3439184"
       width="23.113904"
       height="22.130333"
       id="rect2" />
  </defs>
  <g
     inkscape:label="Layer 1"
     inkscape:groupmode="layer"
     id="layer1">
    <rect
       style="fill:#ccff00;stroke-width:0.465"
       id="rect1"
       width="10"
       height="10"
       x="0"
       y="0"
       ry="3.3122709"
       rx="2.8625996" />
    <path
       d="m 7.6953125,32.834832 v 1.90625 q 0.890625,-0.28125 1.6171875,-0.28125 1.476563,0 2.453125,1.007813 0.976563,1.007812 0.976563,2.601562 0,1.640625 -0.992188,2.578125 -0.984375,0.929688 -3.0234375,0.929688 -1.796875,0 -2.84375,-0.679688 -0.609375,-0.390625 -0.609375,-0.898437 0,-0.320313 0.234375,-0.554688 Q 5.75,39.20202 6.078125,39.20202 q 0.2734375,0 0.59375,0.265625 0.3203125,0.257812 0.671875,0.359375 0.5,0.148437 1.28125,0.148437 1.453125,0 1.984375,-0.460937 0.53125,-0.46875 0.53125,-1.429688 0,-0.945312 -0.515625,-1.484375 -0.507812,-0.539062 -1.3125,-0.539062 -0.8671875,0 -1.9765625,0.5625 -0.25,0.132812 -0.4375,0.132812 -0.34375,0 -0.578125,-0.25 Q 6.09375,36.256707 6.09375,35.85827 v -4.625 h 4.898438 q 0.578125,0 0.820312,0.226562 0.25,0.21875 0.25,0.578125 0,0.351563 -0.25,0.578125 -0.242187,0.21875 -0.820312,0.21875 z m 12.1562495,2.484375 q 0,0.453125 -0.320312,0.757813 -0.320313,0.304687 -0.882813,0.304687 -0.5625,0 -0.882812,-0.304687 -0.320313,-0.304688 -0.320313,-0.757813 0,-0.453125 0.320313,-0.757812 0.320312,-0.304688 0.882812,-0.304688 0.5625,0 0.882813,0.304688 0.320312,0.304687 0.320312,0.757812 z m 0.01563,5.242188 q 0,0.453125 -0.320312,0.757812 -0.320313,0.304688 -0.882813,0.304688 -0.5625,0 -0.882812,-0.304688 -0.320313,-0.304687 -0.320313,-0.757812 0,-0.453125 0.320313,-0.757813 0.320312,-0.304687 0.882812,-0.304687 0.5625,0 0.882813,0.304687 0.320312,0.304688 0.320312,0.757813 z M 29.0625,30.975457 v 8.765625 h 1.617187 q 0.578125,0 0.820313,0.226563 0.25,0.21875 0.25,0.578125 0,0.351562 -0.25,0.578125 -0.242188,0.21875 -0.820313,0.21875 H 25.84375 q -0.578125,0 -0.828125,-0.21875 -0.242188,-0.226563 -0.242188,-0.585938 0,-0.351562 0.242188,-0.570312 0.25,-0.226563 0.828125,-0.226563 h 1.617187 v -6.679687 l -1.429687,0.375 q -0.34375,0.09375 -0.515625,0.09375 -0.304688,0 -0.53125,-0.242188 -0.21875,-0.242187 -0.21875,-0.59375 0,-0.320312 0.164062,-0.5 0.164063,-0.1875 0.6875,-0.328125 z"
       id="text8"
       style="font-weight:bold;font-size:16px;font-family:'Courier New';-inkscape-font-specification:'Courier New Bold';white-space:pre;fill:#668000;stroke-width:1.75748"
       transform="matrix(0.26458333,0,0,0.26458333,0.06386725,-4.6042892)"
       aria-label="5:1" />
  </g>
</svg>
