<?xml version="1.0" encoding="UTF-8" standalone="no"?>
<!-- Created with Inkscape (http://www.inkscape.org/) -->

<svg
   width="10mm"
   height="10mm"
   viewBox="0 0 10 10"
   version="1.1"
   id="svg1"
   inkscape:version="1.4 (86a8ad7, 2024-10-11)"
   sodipodi:docname="6.1on.svg"
   xmlns:inkscape="http://www.inkscape.org/namespaces/inkscape"
   xmlns:sodipodi="http://sodipodi.sourceforge.net/DTD/sodipodi-0.dtd"
   xmlns="http://www.w3.org/2000/svg"
   xmlns:svg="http://www.w3.org/2000/svg">
  <sodipodi:namedview
     id="namedview1"
     pagecolor="#ffffff"
     bordercolor="#000000"
     borderopacity="0.25"
     inkscape:showpageshadow="2"
     inkscape:pageopacity="0.0"
     inkscape:pagecheckerboard="0"
     inkscape:deskcolor="#d1d1d1"
     inkscape:document-units="mm"
     inkscape:zoom="11.313708"
     inkscape:cx="15.335378"
     inkscape:cy="33.366601"
     inkscape:window-width="1920"
     inkscape:window-height="1009"
     inkscape:window-x="-8"
     inkscape:window-y="-8"
     inkscape:window-maximized="1"
     inkscape:current-layer="layer1" />
  <defs
     id="defs1">
    <rect
       x="4.2426407"
       y="27.311999"
       width="29.168155"
       height="23.953242"
       id="rect8" />
    <rect
       x="2.997212"
       y="26.275558"
       width="34.798064"
       height="28.473514"
       id="rect7" />
    <rect
       x="3.4967473"
       y="26.075744"
       width="33.768588"
       height="23.178439"
       id="rect6" />
    <rect
       x="7.0710678"
       y="12.020815"
       width="45.608388"
       height="36.062446"
       id="rect5" />
    <rect
       x="5.3033009"
       y="7.7781746"
       width="27.577164"
       height="21.566757"
       id="rect4" />
    <rect
       x="6.3932074"
       y="7.8685629"
       width="24.589259"
       height="22.130333"
       id="rect3" />
    <rect
       x="7.3767777"
       y="9.3439184"
       width="23.113904"
       height="22.130333"
       id="rect2" />
  </defs>
  <g
     inkscape:label="Layer 1"
     inkscape:groupmode="layer"
     id="layer1">
    <rect
       style="fill:#ccff00;stroke-width:0.465"
       id="rect1"
       width="10"
       height="10"
       x="0"
       y="0"
       ry="3.3122709"
       rx="2.8625996" />
    <path
       d="m 7.5390625,35.873895 q 0.578125,-0.484375 1.1015625,-0.703125 0.5234375,-0.226563 1.1171875,-0.226563 1.2578125,0 2.2031255,1 0.945312,1 0.945312,2.507813 0,1.398437 -0.882812,2.265625 -0.875,0.859375 -2.382813,0.859375 -1.2578125,0 -2.0703125,-0.585938 -0.8125,-0.585937 -1.2265625,-1.804687 -0.4140625,-1.21875 -0.4140625,-2.71875 0,-1.796875 0.8203125,-2.984375 0.8203125,-1.195313 1.9296875,-1.851563 1.109375,-0.65625 2.3437505,-0.65625 0.976562,0 1.515625,0.382813 0.351562,0.257812 0.351562,0.65625 0,0.351562 -0.234375,0.59375 -0.234375,0.234375 -0.5625,0.234375 -0.1875,0 -0.539062,-0.1875 -0.210938,-0.109375 -0.40625,-0.109375 -0.765625,0 -1.585938,0.4375 -0.8203125,0.429687 -1.421875,1.328125 -0.4140625,0.625 -0.6015625,1.5625 z m 0.234375,2.476562 q 0.25,0.9375 0.671875,1.28125 0.4296875,0.34375 1.21875,0.34375 0.7890625,0 1.2109375,-0.414062 0.429688,-0.414063 0.429688,-1.125 0,-0.8125 -0.492188,-1.351563 -0.484375,-0.539062 -1.09375,-0.539062 -0.484375,0 -1.0390625,0.476562 -0.546875,0.476563 -0.90625,1.328125 z m 12.0781245,-3.03125 q 0,0.453125 -0.320312,0.757813 -0.320313,0.304687 -0.882813,0.304687 -0.5625,0 -0.882812,-0.304687 -0.320313,-0.304688 -0.320313,-0.757813 0,-0.453125 0.320313,-0.757812 0.320312,-0.304688 0.882812,-0.304688 0.5625,0 0.882813,0.304688 0.320312,0.304687 0.320312,0.757812 z m 0.01563,5.242188 q 0,0.453125 -0.320312,0.757812 -0.320313,0.304688 -0.882813,0.304688 -0.5625,0 -0.882812,-0.304688 -0.320313,-0.304687 -0.320313,-0.757812 0,-0.453125 0.320313,-0.757813 0.320312,-0.304687 0.882812,-0.304687 0.5625,0 0.882813,0.304687 0.320312,0.304688 0.320312,0.757813 z M 29.0625,30.975457 v 8.765625 h 1.617187 q 0.578125,0 0.820313,0.226563 0.25,0.21875 0.25,0.578125 0,0.351562 -0.25,0.578125 -0.242188,0.21875 -0.820313,0.21875 H 25.84375 q -0.578125,0 -0.828125,-0.21875 -0.242188,-0.226563 -0.242188,-0.585938 0,-0.351562 0.242188,-0.570312 0.25,-0.226563 0.828125,-0.226563 h 1.617187 v -6.679687 l -1.429687,0.375 q -0.34375,0.09375 -0.515625,0.09375 -0.304688,0 -0.53125,-0.242188 -0.21875,-0.242187 -0.21875,-0.59375 0,-0.320312 0.164062,-0.5 0.164063,-0.1875 0.6875,-0.328125 z"
       id="text8"
       style="font-weight:bold;font-size:16px;font-family:'Courier New';-inkscape-font-specification:'Courier New Bold';white-space:pre;fill:#668000;stroke-width:1.75748"
       transform="matrix(0.26458333,0,0,0.26458333,0.06386725,-4.6042892)"
       aria-label="6:1" />
  </g>
</svg>
