<?xml version="1.0" encoding="UTF-8" standalone="no"?>
<!-- Created with Inkscape (http://www.inkscape.org/) -->

<svg
   width="10mm"
   height="10mm"
   viewBox="0 0 10 10"
   version="1.1"
   id="svg1"
   inkscape:version="1.4 (86a8ad7, 2024-10-11)"
   sodipodi:docname="8-5On.svg"
   xmlns:inkscape="http://www.inkscape.org/namespaces/inkscape"
   xmlns:sodipodi="http://sodipodi.sourceforge.net/DTD/sodipodi-0.dtd"
   xmlns="http://www.w3.org/2000/svg"
   xmlns:svg="http://www.w3.org/2000/svg">
  <sodipodi:namedview
     id="namedview1"
     pagecolor="#ffffff"
     bordercolor="#000000"
     borderopacity="0.25"
     inkscape:showpageshadow="2"
     inkscape:pageopacity="0.0"
     inkscape:pagecheckerboard="0"
     inkscape:deskcolor="#d1d1d1"
     inkscape:document-units="mm"
     inkscape:zoom="10.009302"
     inkscape:cx="15.085967"
     inkscape:cy="32.819471"
     inkscape:window-width="1920"
     inkscape:window-height="1009"
     inkscape:window-x="-8"
     inkscape:window-y="-8"
     inkscape:window-maximized="1"
     inkscape:current-layer="layer1" />
  <defs
     id="defs1">
    <rect
       x="7.0710678"
       y="12.020815"
       width="45.608388"
       height="36.062446"
       id="rect5" />
    <rect
       x="5.3033009"
       y="7.7781746"
       width="27.577164"
       height="21.566757"
       id="rect4" />
    <rect
       x="6.3932074"
       y="7.8685629"
       width="24.589259"
       height="22.130333"
       id="rect3" />
    <rect
       x="7.3767777"
       y="9.3439184"
       width="23.113904"
       height="22.130333"
       id="rect2" />
  </defs>
  <g
     inkscape:label="Layer 1"
     inkscape:groupmode="layer"
     id="layer1">
    <rect
       style="fill:#ccff00;stroke-width:0.465"
       id="rect1"
       width="10"
       height="10"
       x="0"
       y="0"
       ry="3.3122709"
       rx="2.8625996" />
    <path
       d="m 3.1138119,4.896647 q 0.1632974,0.1260904 0.2439126,0.2873207 0.082682,0.1591633 0.082682,0.3513995 0,0.2129067 -0.1054198,0.3927405 -0.1033528,0.1777668 -0.3265948,0.2811196 -0.223242,0.1033528 -0.4960934,0.1033528 -0.2728513,0 -0.4919592,-0.1033528 Q 1.8012316,6.1058745 1.6958118,5.9260407 1.592459,5.7462068 1.592459,5.5353672 q 0,-0.1922362 0.080615,-0.3513995 Q 1.7557564,5.0227374 1.9190538,4.896647 1.776427,4.7643554 1.70408,4.6155274 1.6317331,4.4666994 1.6317331,4.301335 q 0,-0.3245277 0.2480466,-0.558105 0.2480467,-0.2356443 0.6366532,-0.2356443 0.3886064,0 0.6366531,0.2356443 0.2480466,0.2335773 0.2480466,0.558105 0,0.1674315 -0.072347,0.3162595 -0.07028,0.148828 -0.2149738,0.2790525 z M 2.967051,4.3096032 q 0,-0.1570962 -0.1240234,-0.2666501 -0.1219562,-0.111621 -0.3307289,-0.111621 -0.2108396,0 -0.334863,0.111621 -0.1219562,0.1095539 -0.1219562,0.2666501 0,0.1591633 0.1219562,0.2707843 0.1240234,0.1095539 0.334863,0.1095539 0.2087727,0 0.3307289,-0.1095539 Q 2.967051,4.4687665 2.967051,4.3096032 Z m 0.049609,1.2464345 q 0,-0.1674315 -0.1446939,-0.3017901 -0.1426268,-0.1364257 -0.3555335,-0.1364257 -0.2129068,0 -0.3576007,0.1364257 -0.1426268,0.1343586 -0.1426268,0.3059242 0,0.1322916 0.1240233,0.2315103 0.1240234,0.097152 0.3762042,0.097152 0.2542478,0 0.3762041,-0.097152 0.1240233,-0.099219 0.1240233,-0.2356444 z M 5.9270745,3.6254078 4.569019,6.5523585 q -0.051676,0.1095539 -0.093018,0.1426268 -0.053743,0.043408 -0.1302245,0.043408 -0.086816,0 -0.1508951,-0.062012 -0.062012,-0.062012 -0.062012,-0.1405597 0,-0.05581 0.049609,-0.1632974 L 5.5446692,3.4476411 q 0.051676,-0.109554 0.09095,-0.1426269 0.05581,-0.043408 0.1302245,-0.043408 0.086816,0 0.148828,0.062012 0.062012,0.059945 0.062012,0.1384927 0,0.055811 -0.049609,0.1632974 z m 1.3105132,0.3741371 v 0.5043615 q 0.2356443,-0.074414 0.4278805,-0.074414 0.3906735,0 0.6490554,0.2666502 0.2583819,0.2666502 0.2583819,0.6883295 0,0.4340817 -0.262516,0.6821283 -0.260449,0.2459797 -0.7999505,0.2459797 -0.4754228,0 -0.7524082,-0.1798339 -0.1612304,-0.1033528 -0.1612304,-0.2377114 0,-0.084749 0.062012,-0.1467609 0.064079,-0.064079 0.1508951,-0.064079 0.072347,0 0.1570962,0.07028 0.084749,0.068213 0.1777668,0.095085 0.1322915,0.039274 0.3389971,0.039274 0.3844723,0 0.5250321,-0.1219563 0.1405598,-0.1240233 0.1405598,-0.3782712 0,-0.2501137 -0.1364257,-0.3927405 -0.1343586,-0.1426269 -0.3472653,-0.1426269 -0.2294432,0 -0.5229651,0.148828 -0.066146,0.03514 -0.1157551,0.03514 -0.090951,0 -0.1529621,-0.066146 -0.059945,-0.066146 -0.059945,-0.1715656 V 3.5757985 h 1.2960438 q 0.1529621,0 0.2170408,0.059945 0.066146,0.057878 0.066146,0.1529621 0,0.093018 -0.066146,0.1529621 -0.064079,0.057878 -0.2170408,0.057878 z"
       id="text7"
       style="font-weight:bold;font-size:4.23333px;font-family:'Courier New';-inkscape-font-specification:'Courier New Bold';fill:#668000;stroke-width:0.465"
       aria-label="8/5" />
  </g>
</svg>
