<?xml version="1.0" encoding="UTF-8" standalone="no"?>
<!-- Created with Inkscape (http://www.inkscape.org/) -->

<svg
   width="10mm"
   height="10mm"
   viewBox="0 0 10 10"
   version="1.1"
   id="svg1"
   inkscape:version="1.4 (86a8ad7, 2024-10-11)"
   sodipodi:docname="8.3on.svg"
   xmlns:inkscape="http://www.inkscape.org/namespaces/inkscape"
   xmlns:sodipodi="http://sodipodi.sourceforge.net/DTD/sodipodi-0.dtd"
   xmlns="http://www.w3.org/2000/svg"
   xmlns:svg="http://www.w3.org/2000/svg">
  <sodipodi:namedview
     id="namedview1"
     pagecolor="#ffffff"
     bordercolor="#000000"
     borderopacity="0.25"
     inkscape:showpageshadow="2"
     inkscape:pageopacity="0.0"
     inkscape:pagecheckerboard="0"
     inkscape:deskcolor="#d1d1d1"
     inkscape:document-units="mm"
     inkscape:zoom="11.313708"
     inkscape:cx="15.335378"
     inkscape:cy="33.366601"
     inkscape:window-width="1920"
     inkscape:window-height="1009"
     inkscape:window-x="-8"
     inkscape:window-y="-8"
     inkscape:window-maximized="1"
     inkscape:current-layer="layer1" />
  <defs
     id="defs1">
    <rect
       x="4.2426407"
       y="27.311999"
       width="29.168155"
       height="23.953242"
       id="rect8" />
    <rect
       x="2.997212"
       y="26.275558"
       width="34.798064"
       height="28.473514"
       id="rect7" />
    <rect
       x="3.4967473"
       y="26.075744"
       width="33.768588"
       height="23.178439"
       id="rect6" />
    <rect
       x="7.0710678"
       y="12.020815"
       width="45.608388"
       height="36.062446"
       id="rect5" />
    <rect
       x="5.3033009"
       y="7.7781746"
       width="27.577164"
       height="21.566757"
       id="rect4" />
    <rect
       x="6.3932074"
       y="7.8685629"
       width="24.589259"
       height="22.130333"
       id="rect3" />
    <rect
       x="7.3767777"
       y="9.3439184"
       width="23.113904"
       height="22.130333"
       id="rect2" />
  </defs>
  <g
     inkscape:label="Layer 1"
     inkscape:groupmode="layer"
     id="layer1">
    <rect
       style="fill:#ccff00;stroke-width:0.465"
       id="rect1"
       width="10"
       height="10"
       x="0"
       y="0"
       ry="3.3122709"
       rx="2.8625996" />
    <path
       d="m 11.3125,36.225457 q 0.617188,0.476563 0.921875,1.085938 0.3125,0.601562 0.3125,1.328125 0,0.804687 -0.398437,1.484375 -0.390625,0.671875 -1.234375,1.0625 -0.84375,0.390625 -1.8750005,0.390625 -1.03125,0 -1.859375,-0.390625 Q 6.3515625,40.79577 5.953125,40.116082 5.5625,39.436395 5.5625,38.63952 q 0,-0.726563 0.3046875,-1.328125 0.3125,-0.609375 0.9296875,-1.085938 -0.5390625,-0.5 -0.8125,-1.0625 -0.2734375,-0.5625 -0.2734375,-1.1875 0,-1.226562 0.9375,-2.109375 0.9375,-0.890625 2.40625,-0.890625 1.4687505,0 2.4062505,0.890625 0.9375,0.882813 0.9375,2.109375 0,0.632813 -0.273438,1.195313 -0.265625,0.5625 -0.8125,1.054687 z m -0.554687,-2.21875 q 0,-0.59375 -0.46875,-1.007812 -0.460938,-0.421875 -1.2500005,-0.421875 -0.796875,0 -1.265625,0.421875 Q 7.3125,33.412957 7.3125,34.006707 q 0,0.601563 0.4609375,1.023438 0.46875,0.414062 1.265625,0.414062 0.7890625,0 1.2500005,-0.414062 0.46875,-0.421875 0.46875,-1.023438 z m 0.1875,4.710938 q 0,-0.632813 -0.546875,-1.140625 -0.539063,-0.515625 -1.3437505,-0.515625 -0.8046875,0 -1.3515625,0.515625 -0.5390625,0.507812 -0.5390625,1.15625 0,0.5 0.46875,0.875 0.46875,0.367187 1.421875,0.367187 0.9609375,0 1.4218755,-0.367187 0.46875,-0.375 0.46875,-0.890625 z m 8.906249,-3.398438 q 0,0.453125 -0.320312,0.757813 -0.320313,0.304687 -0.882813,0.304687 -0.5625,0 -0.882812,-0.304687 -0.320313,-0.304688 -0.320313,-0.757813 0,-0.453125 0.320313,-0.757812 0.320312,-0.304688 0.882812,-0.304688 0.5625,0 0.882813,0.304688 0.320312,0.304687 0.320312,0.757812 z m 0.01563,5.242188 q 0,0.453125 -0.320312,0.757812 -0.320313,0.304688 -0.882813,0.304688 -0.5625,0 -0.882812,-0.304688 -0.320313,-0.304687 -0.320313,-0.757812 0,-0.453125 0.320313,-0.757813 0.320312,-0.304687 0.882812,-0.304687 0.5625,0 0.882813,0.304687 0.320312,0.304688 0.320312,0.757813 z M 30.53125,35.991082 q 0.710937,0.484375 1.0625,1.125 0.351562,0.632813 0.351562,1.421875 0,0.851563 -0.46875,1.578125 -0.460937,0.71875 -1.34375,1.09375 -0.882812,0.367188 -2.3125,0.367188 -1.859375,0 -2.796875,-0.578125 Q 24.5,40.67077 24.5,40.217645 q 0,-0.34375 0.226562,-0.578125 0.234375,-0.242188 0.5625,-0.242188 0.226563,0 0.46875,0.15625 0.34375,0.234375 0.648438,0.3125 0.46875,0.109375 1.289062,0.109375 1.398438,0 2.023438,-0.359375 0.625,-0.367187 0.625,-1.03125 0,-0.492187 -0.367188,-0.945312 -0.359375,-0.460938 -0.96875,-0.710938 -0.351562,-0.140625 -1.1875,-0.195312 -0.398437,-0.02344 -0.617187,-0.242188 -0.210938,-0.226562 -0.210938,-0.554687 0,-0.34375 0.234375,-0.578125 0.234375,-0.234375 0.59375,-0.234375 0.796875,0 0.851563,-0.0078 0.3125,-0.03125 0.625,-0.203125 0.3125,-0.171875 0.5,-0.46875 0.195312,-0.304687 0.195312,-0.625 0,-0.507812 -0.453125,-0.875 -0.445312,-0.375 -1.34375,-0.375 -1.15625,0 -1.765625,0.671875 -0.179687,0.195313 -0.289062,0.25 -0.164063,0.08594 -0.367188,0.08594 -0.328125,0 -0.5625,-0.234375 -0.234375,-0.234375 -0.234375,-0.578125 0,-0.539063 0.71875,-1.046875 1.046875,-0.742188 2.617188,-0.742188 1.484375,0 2.382812,0.84375 0.898438,0.84375 0.898438,2.03125 0,0.617188 -0.265625,1.15625 -0.265625,0.53125 -0.796875,0.984375 z"
       id="text8"
       style="font-weight:bold;font-size:16px;font-family:'Courier New';-inkscape-font-specification:'Courier New Bold';white-space:pre;fill:#668000;stroke-width:1.75748"
       transform="matrix(0.26458333,0,0,0.26458333,0.06386725,-4.6042892)"
       aria-label="8:3" />
  </g>
</svg>
